<svg id="Layer_1" data-name="Layer 1" xmlns="http://www.w3.org/2000/svg" xmlns:xlink="http://www.w3.org/1999/xlink" viewBox="0 0 216 60"><defs><style>.cls-1{fill:none;}.cls-2{clip-path:url(#clip-path);}.cls-3{fill:#231f20;}.cls-3,.cls-6{fill-rule:evenodd;}.cls-4{clip-path:url(#clip-path-2);}.cls-5{fill:#fff;}.cls-6{fill:#0094d9;}</style><clipPath id="clip-path"><rect class="cls-1" x="3.45" y="2" width="209.55" height="54.93"/></clipPath><clipPath id="clip-path-2"><rect class="cls-1" x="3.45" y="2" width="206.16" height="54.93"/></clipPath></defs><title>Artboard 1</title><g class="cls-2"><path class="cls-3" d="M186.8,9.83h.35c3,.07,5.59,1.3,8.52,2.65a13,13,0,0,0,4.51.85c4.34.27,7.83,1,9.44,2.42-.53,1-1,1.91-1.54,2.87a7.83,7.83,0,0,0-.66,2.93A25.89,25.89,0,0,1,203,33a19.74,19.74,0,0,1-3.12,3.75c3.66-7.18,4.66-11,2.19-12.88-1.3-1-3.51-1.57-6.71-1.22A15.74,15.74,0,0,0,186.8,26V14.71A28.14,28.14,0,0,1,191,17a5.2,5.2,0,0,0,1.94-.69c1.26-1,1.09-1.67-1-2.37a22.51,22.51,0,0,0-5.16-1Zm0,30.78a7.87,7.87,0,0,0,5.76,2.47c2.09-.11,4.1-1.6,6.32-3.59-1.59,4.16-5.29,8.39-12.08,12.72ZM102,14.71c33.73,1.74,59.08.65,77-3.6a36.19,36.19,0,0,1,7.84-1.28V13a58.47,58.47,0,0,0-6.92-.09,22.7,22.7,0,0,1,6.92,1.82V26a10.62,10.62,0,0,0-2.32,2.69,8.06,8.06,0,0,0-.48,7.72,12.73,12.73,0,0,0,2.8,4.23v11.6a1.13,1.13,0,0,1-.2.13C184.07,46,181,42,177,41c-4.44-1.09-9.91,1.42-14.51,7.46C159,53,158,55.62,152.58,56.62a25.1,25.1,0,0,1-4.71.45,11.73,11.73,0,0,0,5-4.86l8.29-17.13c1.56-3.25.31-5.47-2.8-5.38l-2.86.09,11.84-8.2a2.33,2.33,0,0,0,.28-3.3c-.78-.78-2.23-1.12-4.25-1.08-35.59.54-49.5-.89-61.36-2.5"/><path class="cls-3" d="M63,13.87V12.59a.3.3,0,0,0,.28-.13.77.77,0,0,0,.09-.46V6.71a.74.74,0,0,0-.09-.46c0-.08-.15-.11-.28-.11V4.84a1,1,0,0,1,.24-.21,1.53,1.53,0,0,1,.87-.25,1.23,1.23,0,0,1,1,.42A1.87,1.87,0,0,1,65.51,6v6.7a1.82,1.82,0,0,1-.35,1.19,1.21,1.21,0,0,1-1,.42,1.42,1.42,0,0,1-.91-.29,1.06,1.06,0,0,1-.2-.17m6.55.28A3.13,3.13,0,0,1,69,15.8a1.81,1.81,0,0,1-1.34.43H65.84V14.7h.88a.59.59,0,0,0,.31-.07.27.27,0,0,0,.09-.24,1,1,0,0,0,0-.19,2.59,2.59,0,0,0-.07-.5L65.64,4.56h2.17l.36,4.8c0,.22,0,.51,0,.9s0,.87.08,1.44h0c.05-.35.08-.71.12-1.11s.07-.87.13-1.45l.48-4.58h2ZM63,4.84v1.3a.35.35,0,0,0-.3.14.71.71,0,0,0-.09.43V12a.69.69,0,0,0,.09.43.36.36,0,0,0,.3.16v1.28a1.88,1.88,0,0,1-.39-.61h0v.82H60.52V2.18h2.11V5.37h0A1.53,1.53,0,0,1,63,4.84m-8.81,9V12.59a.32.32,0,0,0,.29-.16.75.75,0,0,0,.1-.43V6.71a.78.78,0,0,0-.1-.43.31.31,0,0,0-.29-.14V4.84a1.69,1.69,0,0,1,.35.53h0V2.18h2.09v11.9H54.63v-.82h0a2.06,2.06,0,0,1-.39.61m0-9v1.3a.31.31,0,0,0-.28.11.81.81,0,0,0-.09.46V12a.86.86,0,0,0,.09.46.32.32,0,0,0,.28.13v1.28A1.06,1.06,0,0,1,54,14a1.44,1.44,0,0,1-.93.29,1.14,1.14,0,0,1-1-.42,1.71,1.71,0,0,1-.35-1.19V6a1.85,1.85,0,0,1,.35-1.24,1.21,1.21,0,0,1,1-.4,1.42,1.42,0,0,1,.87.25.8.8,0,0,1,.26.21m-5.57,9.49V12.74a.32.32,0,0,0,.28-.13.86.86,0,0,0,.09-.46V10.37h2.1v1.78a2,2,0,0,1-.65,1.59,2.64,2.64,0,0,1-1.82.59m0-4.71V8.2H49V6.4A.84.84,0,0,0,48.92,6a.34.34,0,0,0-.28-.13V4.32a2.92,2.92,0,0,1,1.82.56,1.88,1.88,0,0,1,.65,1.5V9.62Zm0-5.3v1.5a.41.41,0,0,0-.31.13,1.13,1.13,0,0,0-.08.45V8.2h.39V9.62h-.39v2.53a1.15,1.15,0,0,0,.08.46.37.37,0,0,0,.31.13v1.59a2.57,2.57,0,0,1-1.91-.63,3,3,0,0,1-.57-2.09V7a3,3,0,0,1,.57-2.1,2.53,2.53,0,0,1,1.89-.61Zm-11.37,10V12.74a.3.3,0,0,0,.29-.13.85.85,0,0,0,.1-.46V10.37h2.08v1.78a2,2,0,0,1-.65,1.59,2.62,2.62,0,0,1-1.82.59m0-4.71V8.2h.39V6.4a.83.83,0,0,0-.1-.45.32.32,0,0,0-.29-.13V4.32a2.82,2.82,0,0,1,1.82.56,1.85,1.85,0,0,1,.65,1.5V9.62Zm3.15,4.46V4.56h2.06v.81h.05a1.66,1.66,0,0,1,.62-.74A1.48,1.48,0,0,1,44,4.38a1.2,1.2,0,0,1,1,.42A1.76,1.76,0,0,1,45.38,6V9.68H43.25v-3a1,1,0,0,0-.06-.46.36.36,0,0,0-.3-.11.36.36,0,0,0-.29.14.81.81,0,0,0-.07.43v7.37ZM37.27,4.32v1.5A.32.32,0,0,0,37,6a.84.84,0,0,0-.09.45V8.2h.37V9.62H36.9v2.53a.86.86,0,0,0,.09.46.3.3,0,0,0,.28.13v1.59a2.57,2.57,0,0,1-1.91-.63,3.1,3.1,0,0,1-.56-2.09V7a3,3,0,0,1,.56-2.1,2.53,2.53,0,0,1,1.89-.61Zm-14.09,10V12.74a.35.35,0,0,0,.3-.13,1.15,1.15,0,0,0,.08-.46V6.4a.88.88,0,0,0-.1-.45.32.32,0,0,0-.28-.13V4.32A2.57,2.57,0,0,1,25.06,5,3,3,0,0,1,25.65,7v4.58a3,3,0,0,1-.59,2.09,2.53,2.53,0,0,1-1.88.63m3.94-.25-1.3-9.52H28l.41,4.93c0,.32,0,.65,0,1s0,.77,0,1.19h.06c0-.78.1-1.58.18-2.34a.7.7,0,0,1,0-.13l.53-4.69h2.21l.41,4.93c0,.06,0,.32,0,.8s.05,1,.07,1.43H32c0-.71.08-1.43.14-2.17a1.48,1.48,0,0,0,0-.3l.44-4.69h2l-1.41,9.52H30.81l-.39-4.36c0-.14,0-.41-.05-.82s0-.84,0-1.39h-.08c0,.72-.09,1.39-.16,2v0l-.56,4.5ZM17.79,7.13V4.37a.91.91,0,0,0-.12-.55,1.09,1.09,0,0,0-.26-.1V2.18a3.42,3.42,0,0,1,2.1.52,2,2,0,0,1,.65,1.62V6.88a2.62,2.62,0,0,1-.65,2,3.33,3.33,0,0,1-2.1.59V7.78a.55.55,0,0,0,.26-.14.77.77,0,0,0,.12-.51m5.39-2.81v1.5h0a.3.3,0,0,0-.27.13.84.84,0,0,0-.09.45v5.75a.86.86,0,0,0,.09.46.31.31,0,0,0,.29.13v1.59h0a2.52,2.52,0,0,1-1.89-.63,3,3,0,0,1-.59-2.09V7A3,3,0,0,1,21.27,5a2.48,2.48,0,0,1,1.89-.63Zm-5.77-.6a1.42,1.42,0,0,0-.31,0H17V7.79h.4V9.45H17v4.63H14.63V2.18h2.78Z"/></g><g class="cls-4"><path class="cls-3" d="M112.67,56V50.41h5.74v1H114v1.23h2.58v1H114V55h4.48V56ZM23.72,56V55a2.82,2.82,0,0,0,1.52-.41,1.67,1.67,0,0,0,.56-1.39,1.76,1.76,0,0,0-.46-1.31A2,2,0,0,0,24,51.43h-.24v-1H24a3.6,3.6,0,0,1,2.36.74,2.58,2.58,0,0,1,.83,2,3.09,3.09,0,0,1-.33,1.41,2.41,2.41,0,0,1-.92,1,2.57,2.57,0,0,1-.9.32,6.34,6.34,0,0,1-1.28.11m74.11,0V50.41h.88l4,3.32.36.3c.09.11.2.2.28.31,0-.32,0-.55,0-.67a1.84,1.84,0,0,1,0-.31v-3h1.18V56h-.9l-4.11-3.46c-.09-.09-.19-.16-.27-.25a1.33,1.33,0,0,1-.19-.21,3.74,3.74,0,0,0,0,.49V56Zm-9.66-5.62h1.31V56H88.17Zm-9.58,1H74.51V55h4.08V53.73H76.47v-1h3.4v1.94a1.4,1.4,0,0,1-.3,1,1.54,1.54,0,0,1-1.09.28H74.6a1.63,1.63,0,0,1-1.11-.28,1.5,1.5,0,0,1-.28-1v-3a1.6,1.6,0,0,1,.28-1.06,1.68,1.68,0,0,1,1.11-.29h3.88a1.66,1.66,0,0,1,1.09.29,1.38,1.38,0,0,1,.3,1v.13l-1.28.24ZM58.49,56V50.41h.88l4,3.32c.13.11.24.22.35.3a3.92,3.92,0,0,1,.28.31c0-.32,0-.55,0-.67V50.41h1.17V56h-.89l-4.13-3.46a1.47,1.47,0,0,1-.25-.25,1.08,1.08,0,0,1-.22-.21,4.52,4.52,0,0,1,0,.49,3,3,0,0,1,0,.4v3ZM44.8,56V50.41h5.75v1H46.1v1.23h2.6v1H46.1V55h4.49V56ZM23.72,50.41v1H21.63V55h2.09V56H20.33V50.41ZM7.41,56a1.65,1.65,0,0,1-1-.24,1.08,1.08,0,0,1-.26-.86v-.46l1.15-.24V55h3a.75.75,0,0,0,.43-.1.66.66,0,0,0,.11-.42v-.38c0-.22,0-.36-.14-.42s-.21-.1-.4-.1H8.4v-.92h1.69a.67.67,0,0,0,.44-.11.59.59,0,0,0,.11-.41v-.28a.65.65,0,0,0-.11-.41.69.69,0,0,0-.44-.09H7.32v.69l-1.11-.22v-.34a1.16,1.16,0,0,1,.26-.87,1.72,1.72,0,0,1,1-.24h3a1.67,1.67,0,0,1,1,.24,1.12,1.12,0,0,1,.26.87V52a1,1,0,0,1-.24.72,1.38,1.38,0,0,1-.85.34,1.82,1.82,0,0,1,1,.33,1.09,1.09,0,0,1,.3.8v.61a1.14,1.14,0,0,1-.3.93,1.66,1.66,0,0,1-1.05.26Z"/><path class="cls-3" d="M113.23,47.51V44.26h5.38l10.71-21.89h-6.24L113.23,42.5v-13l5-10.3h14.54l.93.07c.19.06.37.08.5.12l.35.07a1.82,1.82,0,0,1,.4.13,1.73,1.73,0,0,1,.72,1.08,3.27,3.27,0,0,1-.48,2.56l-9.54,19.5a12.57,12.57,0,0,1-1.26,2.08,7.93,7.93,0,0,1-1.69,1.56,7.29,7.29,0,0,1-2,.94,9.66,9.66,0,0,1-2.19.24Zm0-21.63a7.9,7.9,0,0,0,.78-4.57,2.79,2.79,0,0,0-.78-1.43Zm0-6v6c-.09.2-.18.37-.26.57a14.1,14.1,0,0,1-3.06,4.12c-.24.2-.45.39-.69.56v-12H111a3.28,3.28,0,0,1,2.26.72m0,9.58-4,8.14v9.91h4V44.26h-.87l.87-1.76Zm-4-10.3v12a13,13,0,0,1-1.44,1c-.5.32-1,.63-1.58.91v-7l1.8-3.75h-1.8V19.16Zm0,18.44v9.91h-3V43.78Zm-3,1.38,1.26-2.62-1.26-1.87Zm0-16.63h-3.6V19.16h3.6Zm0,3.75v7c-.23.11-.5.21-.76.33l.76,1.1V39l-3.6,7.35V31.76h.82Zm0,17.68-1.82,3.73h1.82Zm-3.6-24.62v3.19h-.82l-4.6,9.41h5.42V46.33L102,47.51H95.7l6.16-12.58h-6.2L89.5,47.51H88.09V37.29L97,19.16ZM88.09,32.54l5-10.19-1.67-3.17H88.09Zm0-13.36V32.54l-7.33,15H74.42l6.19-12.62H74.39L68.2,47.51l7.72-15.75h6.31l4.62-9.44h-6.3L68.2,47.51H66.7V37.58l7.47-15.23,5-3.17Zm0,18.11-5,10.22h5ZM66.7,32.05a21.91,21.91,0,0,0,2-2,13.76,13.76,0,0,0,1.84-2.86,7.22,7.22,0,0,0,.72-5.69,4,4,0,0,0-4.08-2.38H66.7Zm0-12.91V32.05l-.62.52a10,10,0,0,1-5.8,2.32H53.37L47.18,47.51,54.9,31.76h6.25l4.62-9.44H59.53L47.18,47.51H46.6V35.69l8.11-16.55Zm0,18.44-4.85,9.93H66.7ZM46.6,22.28h4.23l1.54-3.12H46.6ZM28.05,32.72l.48-1h-.48Zm0-10.4h1.89l-1.58,3.26h3.21l1.32-2.71c.5-1,.63-1.83.37-2.3a2.35,2.35,0,0,0-.74-1l-.89-.28-1-.11H28.05ZM46.6,19.16v3.12H41.39l-4.64,9.48h6.34l-1.52,3.13H35.28l-4.6,9.37h9.4l-1.57,3.16H28.05V36.53l8.53-17.37Zm0,16.53L40.81,47.51H46.6ZM4,43.26A3.31,3.31,0,0,0,3.59,46,2.68,2.68,0,0,0,4.7,47.18l.73.21a3.82,3.82,0,0,0,1.11.12H16.4a7.45,7.45,0,0,0,2.13-.33,4,4,0,0,0,1.85-1,9,9,0,0,0,1.54-1.44A9.34,9.34,0,0,0,23,43l5.05-10.29v-1H19l-1.54,3.13h3.34L16.17,44.3H9.84l10.75-22h7.46V19.16H20.27a7.12,7.12,0,0,0-3.78,1.19,7.74,7.74,0,0,0-2.84,3.13Zm24.07-6.73V47.42H22.72Z"/></g><g class="cls-2"><path class="cls-5" d="M139.88,18.62h25.49a.92.92,0,0,1,.91.91.88.88,0,0,1-.39.74l-15.46,10.4h2a5.84,5.84,0,0,1,2.6.55,3.66,3.66,0,0,1,2.13,3.45,5.84,5.84,0,0,1-.68,2.62L149.4,51.45a.79.79,0,0,0,0,.09,9,9,0,0,1-.78,1.22,11.06,11.06,0,0,1-1,1.17,11.28,11.28,0,0,1-7.24,3.25H127.48a6.31,6.31,0,0,1-2.84-.58,3.62,3.62,0,0,1-2.09-3.35,5.39,5.39,0,0,1,.59-2.33l1.63-3.28a.9.9,0,0,1,.83-.5h4.2a.9.9,0,0,1,.89.91,1,1,0,0,1-.11.43l-1.28,2.57h10.06l7.17-14.36H135.89a.9.9,0,0,1-.88-.92.92.92,0,0,1,.11-.43l1.95-3.9a1,1,0,0,1,.37-.42l9.94-6.5h-9.6a.93.93,0,0,1-.91-.92,1.05,1.05,0,0,1,.11-.43l2-4.06a.91.91,0,0,1,.89-.49"/><path class="cls-6" d="M139.8,19.53h25.57l-17.9,12h4.95c3.32,0,4.72,2.37,3.26,5.32l-7.07,14.19a10.56,10.56,0,0,1-8.31,5.2H127.48c-3.75,0-4.76-2.5-3.54-5l1.65-3.27h4.21l-2,3.88h12.09l8-16.16H135.89l2-3.94,12.51-8.23h-12.6Z"/></g></svg>