<svg xmlns="http://www.w3.org/2000/svg" xmlns:xlink="http://www.w3.org/1999/xlink" viewBox="0 0 206.16 55.01"><defs><style>.cls-1{fill:none;}.cls-2{clip-path:url(#clip-path);}.cls-3{fill:#231f20;}.cls-3,.cls-6{fill-rule:evenodd;}.cls-4{clip-path:url(#clip-path-2);}.cls-5{fill:#fff;}.cls-6{fill:#0094d9;}</style><clipPath id="clip-path" transform="translate(-0.01 -0.17)"><rect class="cls-1" width="209.55" height="54.93"/></clipPath><clipPath id="clip-path-2" transform="translate(-0.01 -0.17)"><rect class="cls-1" width="206.16" height="54.93"/></clipPath></defs><title>Asset 1</title><g id="Layer_2" data-name="Layer 2"><g id="Layer_1-2" data-name="Layer 1"><g class="cls-2"><path class="cls-3" d="M183.35,7.83h.35c3,.07,5.59,1.3,8.52,2.65a12.89,12.89,0,0,0,4.51.85c4.34.27,7.83,1,9.44,2.42-.53,1-1,1.91-1.54,2.87a7.77,7.77,0,0,0-.66,2.93A25.83,25.83,0,0,1,199.55,31a20,20,0,0,1-3.12,3.75c3.66-7.18,4.66-11,2.19-12.88-1.3-1-3.51-1.57-6.71-1.22A15.79,15.79,0,0,0,183.35,24V12.71a28,28,0,0,1,4.2,2.29,5.13,5.13,0,0,0,1.94-.69c1.26-1,1.09-1.67-1-2.37a22.76,22.76,0,0,0-5.16-1Zm0,30.78a7.86,7.86,0,0,0,5.76,2.47c2.09-.11,4.1-1.6,6.32-3.59-1.59,4.16-5.29,8.39-12.08,12.72Zm-84.8-25.9c33.73,1.74,59.08.65,77-3.6a36.56,36.56,0,0,1,7.84-1.28V11a57,57,0,0,0-6.92-.09,22.77,22.77,0,0,1,6.92,1.82V24a10.67,10.67,0,0,0-2.32,2.69,8.06,8.06,0,0,0-.48,7.72,12.75,12.75,0,0,0,2.8,4.23v11.6a1.37,1.37,0,0,1-.2.13C180.62,44,177.55,40,173.55,39c-4.44-1.09-9.91,1.42-14.51,7.46-3.49,4.54-4.49,7.16-9.91,8.16a24.81,24.81,0,0,1-4.71.45,11.78,11.78,0,0,0,5-4.86l8.29-17.13c1.56-3.25.31-5.47-2.8-5.38l-2.86.09,11.84-8.2a2.33,2.33,0,0,0,.3-3.28l0,0c-.78-.78-2.23-1.12-4.25-1.08-35.59.54-49.5-.89-61.36-2.5" transform="translate(-0.01 -0.17)"/><path class="cls-3" d="M59.55,11.87V10.59a.31.31,0,0,0,.28-.13.74.74,0,0,0,.09-.46V4.71a.74.74,0,0,0-.09-.46c0-.08-.15-.11-.28-.11V2.84a1.21,1.21,0,0,1,.24-.21,1.5,1.5,0,0,1,.87-.25,1.23,1.23,0,0,1,1,.42,1.87,1.87,0,0,1,.4,1.2v6.7a1.8,1.8,0,0,1-.35,1.19,1.2,1.2,0,0,1-1,.42A1.42,1.42,0,0,1,59.8,12l-.2-.17m6.55.28a3.08,3.08,0,0,1-.6,1.67,1.81,1.81,0,0,1-1.34.43H62.39V12.7h.88a.55.55,0,0,0,.31-.07.27.27,0,0,0,.09-.24.61.61,0,0,0,0-.19,2.74,2.74,0,0,0-.07-.5L62.19,2.56h2.17l.36,4.8v.9A9.84,9.84,0,0,0,64.8,9.7h0c0-.35.08-.71.12-1.11s.07-.87.13-1.45l.48-4.58h2Zm-6.6-9.29v1.3a.35.35,0,0,0-.3.14.72.72,0,0,0-.09.43V10a.65.65,0,0,0,.09.43.37.37,0,0,0,.3.16v1.28a1.87,1.87,0,0,1-.39-.61h0v.82H57.07V.18h2.11V3.37h0a1.5,1.5,0,0,1,.37-.53m-8.81,9V10.59a.34.34,0,0,0,.29-.16.72.72,0,0,0,.1-.43V4.71a.8.8,0,0,0-.1-.43.3.3,0,0,0-.29-.14V2.84a1.58,1.58,0,0,1,.35.53h0V.18h2.09v11.9h-2v-.82h0a2.19,2.19,0,0,1-.39.61m0-9v1.3a.33.33,0,0,0-.28.11.81.81,0,0,0-.09.46V10a.9.9,0,0,0,.09.46.31.31,0,0,0,.28.13v1.28a.92.92,0,0,1-.24.13,1.49,1.49,0,0,1-.93.29,1.14,1.14,0,0,1-1-.42,1.7,1.7,0,0,1-.35-1.19V4a1.84,1.84,0,0,1,.35-1.24,1.21,1.21,0,0,1,1-.4,1.41,1.41,0,0,1,.87.25.75.75,0,0,1,.26.21m-5.57,9.49V10.74a.31.31,0,0,0,.28-.13.9.9,0,0,0,.09-.46V8.37h2.1v1.78A2,2,0,0,1,47,11.74a2.61,2.61,0,0,1-1.82.59m0-4.71V6.2h.37V4.4a.78.78,0,0,0-.08-.4.34.34,0,0,0-.28-.13V2.32A3,3,0,0,1,47,2.88a1.9,1.9,0,0,1,.65,1.5V7.62Zm0-5.3v1.5a.4.4,0,0,0-.31.13,1.16,1.16,0,0,0-.08.45V6.2h.39V7.62h-.39v2.53a1,1,0,0,0,.08.46.37.37,0,0,0,.31.13v1.59a2.55,2.55,0,0,1-1.91-.63,3,3,0,0,1-.57-2.09V5a3,3,0,0,1,.57-2.1,2.55,2.55,0,0,1,1.89-.61Zm-11.37,10V10.74a.28.28,0,0,0,.29-.13.82.82,0,0,0,.1-.46V8.37h2.08v1.78a2,2,0,0,1-.65,1.59,2.61,2.61,0,0,1-1.82.59m0-4.71V6.2h.39V4.4A.79.79,0,0,0,34.1,4a.33.33,0,0,0-.29-.13V2.32a2.83,2.83,0,0,1,1.82.56,1.84,1.84,0,0,1,.65,1.5V7.62ZM37,12.08V2.56H39v.81h0a1.65,1.65,0,0,1,.62-.74,1.45,1.45,0,0,1,.86-.25,1.2,1.2,0,0,1,1,.42A1.75,1.75,0,0,1,41.93,4V7.68H39.8v-3a.9.9,0,0,0-.06-.46.38.38,0,0,0-.3-.11.37.37,0,0,0-.29.14.79.79,0,0,0-.07.43v7.37ZM33.82,2.32v1.5a.33.33,0,0,0-.27.18.87.87,0,0,0-.09.45V6.2h.37V7.62h-.38v2.53a.9.9,0,0,0,.09.46.31.31,0,0,0,.28.13v1.59a2.55,2.55,0,0,1-1.91-.63,3.12,3.12,0,0,1-.56-2.09V5a3,3,0,0,1,.56-2.1,2.55,2.55,0,0,1,1.89-.61Zm-14.09,10V10.74a.34.34,0,0,0,.3-.13,1,1,0,0,0,.08-.46V4.4A.87.87,0,0,0,20,4a.31.31,0,0,0-.28-.13V2.32A2.56,2.56,0,0,1,21.61,3a3,3,0,0,1,.59,2V9.58a3,3,0,0,1-.59,2.09,2.52,2.52,0,0,1-1.88.63m3.94-.25-1.3-9.52h2.18L25,7.46V9.65H25a22.6,22.6,0,0,1,.18-2.34V7.18l.53-4.69h2.21l.41,4.93v.8c0,.48,0,1,.07,1.43h.13c0-.71.08-1.43.14-2.17a1.5,1.5,0,0,0,0-.3l.44-4.69h2L29.72,12H27.36L27,7.65a6.31,6.31,0,0,0,0-.82,12.82,12.82,0,0,1,0-1.39h-.08a17.07,17.07,0,0,1-.16,2h0l-.56,4.5ZM14.34,5.13V2.37a.89.89,0,0,0-.12-.55,1.17,1.17,0,0,0-.26-.1V.18a3.39,3.39,0,0,1,2.1.52,2,2,0,0,1,.65,1.62V4.88a2.62,2.62,0,0,1-.65,2,3.33,3.33,0,0,1-2.1.59V5.78a.51.51,0,0,0,.26-.14.76.76,0,0,0,.12-.51m5.39-2.81v1.5h0a.29.29,0,0,0-.27.13.87.87,0,0,0-.09.45v5.75a.9.9,0,0,0,.09.46.33.33,0,0,0,.29.13v1.59h0a2.52,2.52,0,0,1-1.89-.63,3,3,0,0,1-.59-2.09V5a3,3,0,0,1,.55-2,2.51,2.51,0,0,1,1.89-.63ZM14,1.72a1.61,1.61,0,0,0-.31,0h-.1V5.79H14V7.45h-.4v4.63H11.18V.18H14Z" transform="translate(-0.01 -0.17)"/></g><g class="cls-4"><path class="cls-3" d="M109.22,54V48.41H115v1h-4.41v1.23h2.58v1h-2.58V53H115v1ZM20.27,54V53a2.8,2.8,0,0,0,1.52-.41,1.66,1.66,0,0,0,.56-1.39,1.76,1.76,0,0,0-.46-1.31,2,2,0,0,0-1.34-.46h-.24v-1h.24a3.58,3.58,0,0,1,2.36.74,2.56,2.56,0,0,1,.83,2,3.14,3.14,0,0,1-.33,1.41,2.4,2.4,0,0,1-.92,1,2.62,2.62,0,0,1-.9.32,6.09,6.09,0,0,1-1.28.11m74.11,0v-5.6h.88l4,3.32.36.3c.09.11.2.2.28.31v-.67a1.61,1.61,0,0,1,0-.31v-3h1.18V54h-.9l-4.11-3.46c-.09-.09-.19-.16-.27-.25a1.29,1.29,0,0,1-.19-.21,4,4,0,0,0,0,.49V54Zm-9.66-5.62h1.31V54H84.72Zm-9.58,1H71.06V53h4.08V51.73H73v-1h3.4v1.94a1.39,1.39,0,0,1-.3,1A1.5,1.5,0,0,1,75,54H71.15A1.67,1.67,0,0,1,70,53.67a1.48,1.48,0,0,1-.28-1v-3A1.59,1.59,0,0,1,70,48.61a1.68,1.68,0,0,1,1.11-.29H75a1.68,1.68,0,0,1,1.09.29,1.39,1.39,0,0,1,.3,1v.13L75.14,50ZM55,54V48.41h.88l4,3.32c.13.11.24.22.35.3a4.12,4.12,0,0,1,.28.31V48.41h1.17V54h-.89L56.7,50.54a1.48,1.48,0,0,1-.25-.25,1.1,1.1,0,0,1-.22-.21,4,4,0,0,1,0,.49,2.67,2.67,0,0,1,0,.4v3ZM41.35,54V48.41H47.1v1H42.65v1.23h2.6v1h-2.6V53h4.49v1ZM20.27,48.41v1H18.18V53h2.09v1H16.88V48.41ZM4,54a1.67,1.67,0,0,1-1-.24,1.09,1.09,0,0,1-.26-.86v-.46l1.15-.24V53h3a.72.72,0,0,0,.43-.1.68.68,0,0,0,.11-.42V52.1c0-.22,0-.36-.14-.42a.82.82,0,0,0-.4-.1H5v-.92H6.64a.64.64,0,0,0,.44-.11.55.55,0,0,0,.11-.41v-.28a.65.65,0,0,0-.11-.41.68.68,0,0,0-.44-.09H3.87v.69l-1.11-.22v-.34A1.15,1.15,0,0,1,3,48.62a1.75,1.75,0,0,1,1-.24H7a1.67,1.67,0,0,1,1,.24,1.11,1.11,0,0,1,.26.87V50a1,1,0,0,1-.24.72,1.36,1.36,0,0,1-.85.34,1.78,1.78,0,0,1,1,.33,1.11,1.11,0,0,1,.3.8v.61a1.17,1.17,0,0,1-.3.93,1.69,1.69,0,0,1-1,.26Z" transform="translate(-0.01 -0.17)"/><path class="cls-3" d="M109.78,45.51V42.26h5.38l10.71-21.89h-6.24L109.78,40.5v-13l5-10.3h14.54l.93.07c.19.06.37.08.5.12l.35.07a1.87,1.87,0,0,1,.4.13,1.72,1.72,0,0,1,.72,1.08,3.27,3.27,0,0,1-.48,2.56l-9.54,19.5a12.26,12.26,0,0,1-1.26,2.08,7.84,7.84,0,0,1-1.69,1.56,7.46,7.46,0,0,1-2,.94,10.07,10.07,0,0,1-2.19.24Zm0-21.63a7.93,7.93,0,0,0,.78-4.57,2.77,2.77,0,0,0-.78-1.43Zm0-6v6c-.09.2-.18.37-.26.57a14.1,14.1,0,0,1-3.06,4.12c-.24.2-.45.39-.69.56v-12h1.78a3.3,3.3,0,0,1,2.26.72m0,9.58-4,8.14v9.91h4V42.26h-.87l.87-1.76Zm-4-10.3v12a12.77,12.77,0,0,1-1.44,1,14.86,14.86,0,0,1-1.58.91V24l1.8-3.75h-1.8V17.16Zm0,18.44v9.91h-3v-3.7Zm-3,1.38,1.26-2.62-1.26-1.87Zm0-16.63h-3.6V17.16h3.6Zm0,3.75v7c-.23.11-.5.21-.76.33l.76,1.1V37l-3.6,7.35V29.76H100Zm0,17.68L101,45.48h1.82Zm-3.6-24.62v3.19h-.82l-4.6,9.41h5.42v14.6l-.66,1.18h-6.3l6.16-12.58h-6.2L86.05,45.51H84.64V35.29l8.91-18.13ZM84.64,30.54l5-10.19L88,17.18H84.64Zm0-13.36V30.54l-7.33,15H71l6.19-12.62H70.94L64.75,45.51l7.72-15.75h6.31l4.62-9.44H77.1L64.75,45.51h-1.5V35.58l7.47-15.23,5-3.17Zm0,18.11-5,10.22h5ZM63.25,30.05a21,21,0,0,0,2-2,13.42,13.42,0,0,0,1.84-2.86,7.19,7.19,0,0,0,.72-5.69,4,4,0,0,0-4.08-2.38h-.48Zm0-12.91V30.05l-.62.52a10,10,0,0,1-5.8,2.32H49.92L43.73,45.51l7.72-15.75H57.7l4.62-9.44H56.08L43.73,45.51h-.58V33.69l8.11-16.55Zm0,18.44L58.4,45.51h4.85Zm-20.1-15.3h4.23l1.54-3.12H43.15ZM24.6,30.72l.48-1H24.6Zm0-10.4h1.89l-1.58,3.26h3.21l1.32-2.71a2.73,2.73,0,0,0,.37-2.3,2.37,2.37,0,0,0-.74-1l-.89-.28-1-.11H24.6Zm18.55-3.16v3.12H37.94L33.3,29.76h6.34l-1.52,3.13H31.83l-4.6,9.37h9.4l-1.57,3.16H24.6V34.53l8.53-17.37Zm0,16.53L37.36,45.51h5.79ZM.55,41.26A3.31,3.31,0,0,0,.14,44a2.69,2.69,0,0,0,1.11,1.18l.73.21a4.15,4.15,0,0,0,1.11.12H13a7.7,7.7,0,0,0,2.13-.33,4,4,0,0,0,1.85-1,9.13,9.13,0,0,0,1.54-1.44A9.73,9.73,0,0,0,19.55,41L24.6,30.71v-1h-9L14,32.84h3.34L12.72,42.3H6.39l10.75-22H24.6V17.16H16.82A7.07,7.07,0,0,0,13,18.35a7.73,7.73,0,0,0-2.84,3.13Zm24.07-6.73V45.42H19.27Z" transform="translate(-0.01 -0.17)"/></g><g class="cls-2"><path class="cls-5" d="M136.43,16.62h25.49a.93.93,0,0,1,.91.91.88.88,0,0,1-.39.74L147,28.67h2a5.82,5.82,0,0,1,2.6.55,3.67,3.67,0,0,1,2.13,3.45,5.87,5.87,0,0,1-.68,2.62L146,49.45v.09a9.71,9.71,0,0,1-.78,1.22,12.35,12.35,0,0,1-1,1.17,11.29,11.29,0,0,1-7.24,3.25H124a6.32,6.32,0,0,1-2.84-.58,3.61,3.61,0,0,1-2.09-3.35,5.4,5.4,0,0,1,.59-2.33l1.63-3.28a.91.91,0,0,1,.83-.5h4.2a.9.9,0,0,1,.89.91h0a.92.92,0,0,1-.11.43l-1.28,2.57h10.06l7.17-14.36H132.44a.9.9,0,0,1-.88-.92h0a.92.92,0,0,1,.11-.43l2-3.9A1,1,0,0,1,134,29l9.94-6.5h-9.6a.94.94,0,0,1-.91-.92,1.05,1.05,0,0,1,.11-.43l2-4.06a.91.91,0,0,1,.89-.49" transform="translate(-0.01 -0.17)"/><path class="cls-6" d="M136.35,17.53h25.57l-17.9,12H149c3.32,0,4.72,2.37,3.26,5.32L145.16,49a10.55,10.55,0,0,1-8.31,5.2H124c-3.75,0-4.76-2.5-3.54-5L122.14,46h4.21l-2,3.88h12.09l8-16.16h-12l2-3.94L147,21.52h-12.6Z" transform="translate(-0.01 -0.17)"/></g></g></g></svg>