<svg id="Layer_1" data-name="Layer 1" xmlns="http://www.w3.org/2000/svg" xmlns:xlink="http://www.w3.org/1999/xlink" width="188.00689" height="185.8468" viewBox="0 0 188.00689 185.8468">
  <defs>
    <style>
      .cls-1 {
        fill: none;
      }

      .cls-2, .cls-4 {
        fill: #231f20;
      }

      .cls-3 {
        clip-path: url(#clip-path);
      }

      .cls-10, .cls-4, .cls-6, .cls-8, .cls-9 {
        fill-rule: evenodd;
      }

      .cls-5 {
        fill: #fff;
      }

      .cls-6 {
        fill: #6e6f72;
      }

      .cls-7 {
        clip-path: url(#clip-path-2);
      }

      .cls-8 {
        fill: #221e1f;
      }

      .cls-9 {
        fill: #0073ac;
      }

      .cls-10 {
        fill: #55a0d3;
      }
    </style>
    <clipPath id="clip-path" transform="translate(-2.98769 -2.15667)">
      <rect class="cls-1" x="3" y="2.15858" width="187.99322" height="185.84624"/>
    </clipPath>
    <clipPath id="clip-path-2" transform="translate(-2.98769 -2.15667)">
      <rect class="cls-1" x="3" y="2.14502" width="188" height="188"/>
    </clipPath>
  </defs>
  <title>stormregion</title>
  <path class="cls-2" d="M97.19552,18.0342h78.0308V62.81377l-.19834-.07523-1.61362-.78636V19.81882H97.8041l-.34879-.92992ZM20.84,188.00347V143.95559l.86836.06844v42.18114h151.706V99.18979l1.812-1.92131v90.735Zm0-52.253.65636-.253.212-.082V56.06505l-.54024-.73169L20.84,54.80689Zm0-80.94359v80.94359l-.9436.32823v-82.53Zm0,89.1487v44.04788h-.9436V143.88725h.19824Z" transform="translate(-2.98769 -2.15667)"/>
  <g class="cls-3">
    <path class="cls-4" d="M150.26763,182.37832v-4.4924h.20512c.06156-.13667.19834-.13667.25979-.19823a40.479,40.479,0,0,0,.14367-5.03253v-7.59653c0-1.72307.26668-4.43762-.27356-5.69578l-.335-.06834v-4.4923c2.0103,0,3.95894.13679,4.7043,1.19661v.19145c.86837,1.52473.66325,4.29395.66325,6.67349v12.50595c0,1.98975.06834,4.69741-.66325,5.81879-.06844.06844-.13678.06844-.19834.13678-.15045.1299-.28034.32823-.417.45124-.13.07523-.26667.07523-.41034.14367v.05467a5.28336,5.28336,0,0,1-.588.14357v.06844H152.948v.123c-.87515,0-1.74362.06844-2.53676.06844Zm8.58123-27.37787h4.506a8.46938,8.46938,0,0,0,.39657,2.37265v.6018c.14356.53324.27346,1.258.40346,1.7914,0,.38979.06833.77948.06833,1.18972.40346,1.25127.4718,2.83767.8,4.10261v.588c.20512.53335.27346,1.25816.417,1.77774.12311.41035,0,.8.19833,1.06671V155.00045h4.08884v27.18642h-4.49908a8.42016,8.42016,0,0,0-.39657-2.26331v-.58114h-.06844v-.4718h-.13668v-.59491h-.07522v-.588h-.1299v-.53335h-.06844c-.05467-.38969-.05467-.78637-.1299-1.18972-.26667-.99148-.32823-2.318-.67013-3.30946v-.588h-.06834v-.51958h-.12989V170.939h-.08212v-.52646h-.123c-.1299-.40346.06833-.86837-.20512-1.13505v12.90941h-4.09573Zm-8.58123-.19824v4.4923l-.26667-.06156c-.19824.26668-.19824.06156-.335.39657a2.91525,2.91525,0,0,0-.07522,1.12138v16.01375c0,.45124,0,.9846.28034,1.12127h.39657v4.4924a9.9951,9.9951,0,0,1-3.62392-.40346c-.13678,0-.335-.05467-.47868-.05467a3.23076,3.23076,0,0,0-.19146-.33512h-.20512c0-.06145-.06833-.12989-.06833-.19823h-.1299c-.86837-1.12138-.80692-3.11113-.80692-5.0872V160.35433a12.02712,12.02712,0,0,1,.40346-3.96583h.1299c0-.13667.07522-.25979.07522-.38968.19834-.13678.32824-.26668.54024-.41713,0-.041.06145-.10944.06145-.17778.19146-.06156.40346-.14357.6018-.2119v-.05478h.41024v-.13678h.38969V154.939h.67691v-.13679ZM103.1633,171.54755v-5.10087h.14367v-.08211h.18456a2.87382,2.87382,0,0,0,.20512-.32135h.14367V159.821c-.14367-.05467-.07522,0-.14367-.19145-.06834,0-.20512-.06834-.26667-.06834-.06834-.06155-.123-.06155-.26668-.12989v-4.43084a8.32582,8.32582,0,0,1,1.942.13678h.73847v.05478h.4718v.15034c.20512,0,.40336.06156.60848.06156v.13678h.19833c0,.041.07523.123.07523.19145h.19823c.06156.05467.06156.1299.1299.18457a3.87884,3.87884,0,0,0,.41034.27356c.86148,1.31961.65636,4.1025.65636,6.2837a13.84062,13.84062,0,0,1-.05467,3.30258v.67013h-.14356v.38969h-.06156v.39657h-.13678c0,.13678-.06155.26668-.06155.40346h-.13679v.19834c-.06145.06145-.20512.12989-.26657.19823v.19145c-.06844,0-.14367.07523-.20522.07523v.12311h-.20512c-.06146.06834-.123.19145-.19824.26668H106.924v.12989h-.20512v.07523h-.19824v.12989h.06834c.25979.253.67013.253.93671.45813.20522.27346.41034.52647.60858.78626v.212h.06155v.19145h.13678c.40336.923.25979,2.653.25979,3.96582v7.54875h-4.75208V172.06713h-.14367c0-.14356-.06834-.27346-.06834-.41024-.19833-.06155-.32134-.06155-.465-.10934m30.33166-7.28207h-4.83419V160.033h-.06834v-.4718c-.32824-.19833-.32824-.32823-.86159-.32823a1.06944,1.06944,0,0,1-.3418.39657V176.498c0,.38969-.06844.923.13668,1.18972.1299.19823.38979.19823.80681.19823.05478-.13667.12312-.13667.2599-.19823.14356-1.518.06834-3.38458.06834-5.03253h-.86837v-4.35551a8.704,8.704,0,0,1,1.87352-.07523h3.67859a4.44077,4.44077,0,0,1,.15045,1.45639v12.50606h-2.2222c-.12311-.6018-.52647-.99837-.66325-1.65473h-.20512c-.12989.12989-.19834.32823-.3419.46491-.06156.06155-.11623.06155-.19145.13v.19823h-.06834c-.06844.06156-.13678.19834-.19834.25979h-.20512c-.06156.13678-.12989.19145-.19823.33512-.19834.05467-.40346.13668-.60858.19824v.06844h-.2599v.123h-.54013a5.7398,5.7398,0,0,1-4.09572-.588v-.13678c-.06834,0-.13678-.06145-.19824-.06145v-.19834c-.06844-.06834-.19145-.13678-.26667-.19823-.8137-1.20349-.60858-4.3624-.60858-6.42059v-12.041c0-1.64784-.26668-3.83582.20512-5.15554v-.51968h.06156c.06155-.20512.06155-.39658.13678-.6017h.06834a3.75463,3.75463,0,0,1,.13678-.38968c.07522,0,.13667-.08211.19823-.08211.1299-.18457.26668-.335.40346-.5128h.19823v-.06156h.13678V155.192h.32824v-.05478h.27346a13.60651,13.60651,0,0,1,5.23076-.19823h.80692v.06145h.46491v.13678h.3419v.05478c.1299.06833.26668.06833.40335.15034v.06156h.19834c1.62051,1.11449,1.27861,6.01713,1.27861,8.86157m-21.682-9.265h7.59654v4.3624a10.28461,10.28461,0,0,1-2.88546.06844v5.62734h2.88546v4.36918a10.85748,10.85748,0,0,1-2.88546.05477v8.26667h2.88546v4.43762H111.813Zm24.89568,0h4.70429v27.18642h-4.70429Zm-33.54535,0v4.43084h-.67v6.93328a1.71846,1.71846,0,0,0,.67.08211v5.10087c-.20512,0-.335-.07522-.67-.07522v10.71454h-4.759V155.00045h5.429Zm-32.335,16.5471v-5.10087h.12989v-.08211h.19824c.06844-.11623.13678-.18457.20522-.32135h.07512V159.821c-.07512-.05467,0,0-.07512-.19145-.13678,0-.20522-.06834-.33512-.06834,0-.06155-.14356-.06155-.19823-.12989v-4.43084a8.779,8.779,0,0,1,1.94864.13678h.66325v.05478h.54024v.15034c.20512,0,.39657.06156.5948.06156v.13678h.20523c0,.041.06834.123.06834.19145h.20511c.06834.05467.06834.1299.1299.18457.1299.08211.20512.212.3419.27356.92993,1.31961.73847,4.1025.73847,6.2837a13.6105,13.6105,0,0,1-.13678,3.30258v.67013H76.0591v.38969h-.13679v.39657H75.854c-.06845.13678-.06845.26668-.12312.40346h-.07522v.19834a.79341.79341,0,0,0-.26668.19823v.19145c-.07522,0-.13678.07523-.20512.07523v.12311h-.19823c-.06845.06834-.13678.19145-.20512.26668h-.20523v.12989H74.377v.07523h-.19145v.12989h.06155c.20512.253.6017.253.93671.45813.20512.27346.3419.52647.547.78626v.212H75.854v.19145h.06833a11.97445,11.97445,0,0,1,.3419,3.96582v7.54875H71.4368V172.06713h-.07512c-.06844-.14356-.06844-.27346-.13678-.41024-.12989-.06155-.26668-.06155-.39657-.10934m8.64957-16.5471h5.77779a14.2814,14.2814,0,0,0,.26667,1.92141v.8547h.1299v.8h.06834v.78626h.12989v.86847h.06844v.78626h.1299v.93681c.27346.90937.20512,2.23587.47858,3.22046v.86837h.13v.79315h.07512v.8h.12311v.78636h.07523c.53335-4.49229,1.0667-8.92313,1.60684-13.42231h5.7709v27.18642H90.01466V168.22442a2.97779,2.97779,0,0,0-.06845-1.12816,8.46255,8.46255,0,0,1-.335,2.72134v.8547h-.06156v.8H89.413v.8547h-.07522c-.13,1.18971-.19145,2.37943-.33512,3.56925H88.948v.78626h-.14356v.86837h-.06845v.92314H88.6676v.86837h-.12989v.8547a10.45687,10.45687,0,0,0-.26668,1.98975H85.52236c-.07522-.66325-.13678-1.3265-.212-1.98975h-.05467v-.8547H85.112v-.86837h-.05467v-.92314h-.14357v-.86837h-.06833v-.78626h-.13678v-.86847h-.06845v-.91616c-.335-.9847-.18456-2.45476-.46491-3.43935v-.8547H84.0522v-.923H83.977V168.033H83.8403c-.06845-.32823.06155-.66325-.06845-.93671v15.09061H79.4779Zm-8.64957,0v4.43084h-.67014v6.93328a1.66774,1.66774,0,0,0,.67014.08211v5.10087c-.20512,0-.40346-.07522-.67014-.07522v10.71454H65.38556V155.00045h5.44277ZM56.66765,182.37832v-4.4924h.20512c.06834-.13667.19145-.13667.32813-.19823.13678-1.518.07522-3.38458.07522-5.03253v-7.59653c0-1.72307.26668-4.43762-.28034-5.69578l-.32813-.06834v-4.4923c2.00341,0,3.95894.13679,4.69053,1.19661v.19145c.882,1.52473.74535,4.29395.74535,6.67349v12.50595c0,1.98975.06156,4.69741-.74535,5.81879-.06146.06844-.1299.06844-.19146.13678-.14356.1299-.27346.32823-.40335.45124-.13678.07523-.27356.07523-.41024.14367v.05467c-.212.082-.39668.082-.59491.14357v.06844H59.348v.123c-.86159,0-1.68207.06844-2.55044.06844Zm-20.3966-17.9146H31.57364a21.75856,21.75856,0,0,0-.19834-5.10087,2.07585,2.07585,0,0,0-.73847-.1299c-.212.26668-.34868.26668-.34868.72481-.19146.19833-.06156.79314-.06156,1.1966,0,1.11449-.19834,2.70766.26667,3.43247.14357.06834.21191.1299.34191.20512v.06834h.19145a.23787.23787,0,0,0,.06834.19834h.212c0,.06155.06834.11622.06834.18456h.19834c.06145.07523.06145.13678.12989.20523h.19824c0,.06145.07522.12989.07522.19823h.19834c.06834.06834.06834.1299.13668.19834h.19834c0,.06834.06155.13668.06155.19823H32.777c.06834.08211.06834.13678.13678.20512h.20512c0,.06156.05468.11623.05468.19834.14356,0,.212.06834.34868.06834v.1299h.19145c0,.06844.06844.12311.06844.19145h.20512c.06834.06844.06834.12989.14357.19834h.18456c.06845.06155.13678.19823.212.27345h.20512c.12311.19146.25989.32824.39657.52658.06156,0,.1299.06145.20512.06145v.19145a.68558.68558,0,0,0,.26668.212v.19145h.06844c.06145.19834.13668.40346.18457.60169h.14356v.335h.06844v.38979h.13668c0,.79314.06844,1.59317.06844,2.441v4.83419c0,1.44961.1299,3.10434-.465,4.03427-.07523,0-.13668.06145-.20512.06145v.19834c-.2119.19823-.41024.335-.60848.53335h-.19833v.05467H34.589v.14357h-.27357v.06844h-.39657v.123h-.60169a16.524,16.524,0,0,1-4.49908,0h-.73847v-.123h-.40346v-.06844h-.26667v-.14357h-.335v-.05467h-.19834c0-.06844-.06155-.14367-.06155-.19834h-.21191c-.06844-.13678-.19833-.26667-.26667-.39657h-.1299a6.68712,6.68712,0,0,1-.67691-2.05808v-1.31283a9.08576,9.08576,0,0,1-.13679-2.38632v-4.30084h4.8342v5.88713a3.04357,3.04357,0,0,0,.26667.73158c.40336,0,.8137.13679,1.00516-.19823.20511-.32823.07522-1.12816.07522-1.58629v-3.25479a5.35909,5.35909,0,0,0-.07522-1.51106c-.06156,0-.12312-.06834-.19146-.06834v-.19834h-.13678c0-.06156-.07522-.1299-.07522-.18457h-.19834a2.12393,2.12393,0,0,0-.19145-.27356h-.21191c0-.07522-.06844-.12989-.06844-.19823a1.98962,1.98962,0,0,1-.32813-.14367v-.05467h-.19834v-.14356c-.07522,0-.2119-.06156-.27345-.06156-.06845-.06156-.06845-.1299-.1299-.19145h-.19834c-.07522-.13679-.14356-.19146-.212-.335h-.19824c0-.05477-.06834-.12989-.06834-.20512h-.19833c-.06834-.05477-.06834-.11623-.1299-.18467h-.20512c0-.06834-.06844-.14356-.06844-.19823h-.19824v-.07523a2.65479,2.65479,0,0,0-.3419-.12989c0-.07523-.06155-.12312-.06155-.19834h-.20512c-.1299-.1299-.26668-.32135-.41024-.45813h-.18467c-.06834-.13678-.06834-.19823-.14357-.32823a1.63792,1.63792,0,0,0-.335-.28035c-.06834-.11623-.06834-.25979-.1299-.38968-.06844-.06845-.13678-.06845-.20512-.1299v-.25989h-.06155v-.19824h-.14357c0-.19834-.06155-.465-.06155-.67013a13.56185,13.56185,0,0,1-.34191-3.82216,12.49828,12.49828,0,0,1,.13679-2.78978V157.9749c.06833-.465.20512-.92315.26667-1.38128h.14357c.06155-.20512.12989-.40335.19823-.5948.13-.13678.33512-.26668.465-.41713,0-.041.06834-.10944.06834-.17778h.20512v-.06156a3.5159,3.5159,0,0,1,.40346-.15034v-.05478c.26668-.07522.53335-.07522.8-.13678V154.939h.80681a10.261,10.261,0,0,1,2.1402-.13679c1.7504,0,3.22735.06834,4.30762.77948a5.39533,5.39533,0,0,0,.51969.80681v.20512h.14356v.19146h.06844v.40345a9.03012,9.03012,0,0,1,.20512,2.76923Zm20.3966-9.66151v4.4923l-.27356-.06156c-.19824.26668-.19824.06156-.32824.39657-.14356.19145-.07512.72481-.07512,1.12138v16.01375c0,.45124,0,.9846.27346,1.12127h.40346v4.4924a9.45019,9.45019,0,0,1-3.56247-.40346c-.19824,0-.32813-.05467-.54014-.05467-.05467-.14367-.12989-.19834-.19145-.33512h-.20512c0-.06145-.06834-.12989-.06834-.19823h-.13c-.87515-1.12138-.80681-3.11113-.80681-5.0872V160.35433a12.02712,12.02712,0,0,1,.40346-3.96583h.13678c0-.13667.06834-.25979.06834-.38968.19823-.13678.32823-.26668.53335-.41713,0-.041.06834-.10944.06834-.17778.19145-.06156.40346-.14357.60169-.2119v-.05478h.41024v-.13678h.38979V154.939h.67692v-.13679Zm-17.78461.19824h9.72984v4.56073H46.06245v22.62569H41.365V159.56118h-2.3521a6.0102,6.0102,0,0,1-.1299-1.58628Z" transform="translate(-2.98769 -2.15667)"/>
    <path class="cls-5" d="M47.93816,83.11187A188.4221,188.4221,0,0,1,22.509,54.34615,182.79466,182.79466,0,0,1,3.66461,20.81448l-.67692-1.44961,1.477-.66325c4.02727-1.92819,8.18455-3.65126,12.41017-5.29233C21.10731,11.81622,25.32614,10.36661,29.627,9.17a176.85932,176.85932,0,0,1,70.71451-5.74356l8.54023,1.05293-8.25988,2.12653a68.7195,68.7195,0,0,0-8.86147,2.96067l.12989.28035a140.71618,140.71618,0,0,1,6.1128,15.542,109.88434,109.88434,0,0,1,4.0205,16.38966l.06844.66325c31.19993,4.22572,61.85982,13.76411,87.50085,30.7419l1.40172.93682-.92992,1.31961c-2.42732,3.56925-4.90253,7.1385-7.58975,10.58464-2.68033,3.43247-5.50433,6.80339-8.45812,10.05808a196.01114,196.01114,0,0,1-54.67353,42.19491l-1.68206.8547-.66325-1.79141c-1.2855-3.69914-2.694-7.34362-4.171-10.97443-16.30765,7.20684-31.87694,12.03426-47.50768,14.54358a177.71587,177.71587,0,0,1-48.17783,1.06671l-8.24611-.93681,7.918-2.3111a81.20692,81.20692,0,0,0,8.45124-2.83077c12.41027-4.96409,25.83248-13.36744,34.87862-24.61533,8.9368-11.10433,13.56587-25.06667,8.73846-41.47011a53.63963,53.63963,0,0,0-1.88718-5.347l-1.34017-3.18635A153.05062,153.05062,0,0,0,48.95009,48.78027a40.609,40.609,0,0,0-1.01193,25.21712,60.9006,60.9006,0,0,0,2.62555,7.26152l3.35047,7.40518Z" transform="translate(-2.98769 -2.15667)"/>
    <path class="cls-6" d="M49.08614,81.933C29.551,63.66982,15.93048,44.757,5.13394,20.1553a173.29239,173.29239,0,0,1,95.0017-15.07694C73.51,12.08687,31.1032,41.851,49.08614,81.933" transform="translate(-2.98769 -2.15667)"/>
  </g>
  <g class="cls-7">
    <path class="cls-6" d="M68.4803,63.86263c20.06148,18.18807,33.14189,36.84792,43.747,60.98467-32.34874,14.2838-61.8667,19.1111-94.947,15.47351,27.91112-8.00687,68.03418-35.52132,51.20005-76.45818" transform="translate(-2.98769 -2.15667)"/>
    <path class="cls-8" d="M101.62292,129.27533A147.119,147.119,0,0,0,70.01943,67.89419c-.46491-1.3265-.94359-2.70089-1.5384-4.03417,20.06148,18.188,33.14189,36.84782,43.747,60.98457-3.56236,1.58639-7.12484,3.04957-10.60509,4.43074" transform="translate(-2.98769 -2.15667)"/>
    <path class="cls-9" d="M90.34769,10.506a118.33337,118.33337,0,0,1,9.99652,31.53515A266.49691,266.49691,0,0,0,53.24,39.92829C61.77332,26.10263,76.057,16.51635,90.34769,10.506" transform="translate(-2.98769 -2.15667)"/>
    <path class="cls-8" d="M90.61645,11.023c-12.2736,8.20521-21.60686,18.05138-27.71289,28.70437q-4.83069,0-9.6615.19823c8.52646-13.81878,22.817-23.41194,37.10772-29.42219Z" transform="translate(-2.98769 -2.15667)"/>
    <path class="cls-10" d="M52.17129,41.64521c46.43409-1.44951,97.36069,7.00861,136.4786,32.86164-16.83423,25.53837-41.33333,47.364-70.05127,62.30428C105.84645,99.90854,80.95078,67.382,49.49085,47.129a56.40214,56.40214,0,0,1,2.68044-5.48377" transform="translate(-2.98769 -2.15667)"/>
  </g>
</svg>
