<svg id="Layer_1" data-name="Layer 1" xmlns="http://www.w3.org/2000/svg" width="209.55606" height="55.18114" viewBox="0 0 209.55606 55.18114">
  <defs>
    <style>
      .cls-1 {
        fill: none;
      }

      .cls-2 {
        fill: #231f20;
      }

      .cls-2, .cls-4 {
        fill-rule: evenodd;
      }

      .cls-3 {
        fill: #fff;
      }

      .cls-4 {
        fill: #0094d9;
      }
    </style>
  </defs>
  <title>BetterAltGepard3</title>
  <rect class="cls-1" x="0.00949" width="209.54657" height="54.93145"/>
  <rect class="cls-1" x="0.00949" width="206.16158" height="54.93145"/>
  <path class="cls-2" d="M186.80065,9.83239h.34738c3.01338.06466,5.59457,1.3007,8.51907,2.64579a12.78283,12.78283,0,0,0,4.51194.8523c4.34238.27064,7.83239,1.00984,9.436,2.42365-.52107.95733-1.01791,1.90658-1.53492,2.86391a7.86936,7.86936,0,0,0-.65845,2.92851,25.97947,25.97947,0,0,1-4.39884,11.45166,19.6674,19.6674,0,0,1-3.12248,3.74851c3.66371-7.17794,4.6574-11.01533,2.18937-12.88155-1.3007-.97754-3.51423-1.56321-6.70537-1.21583a15.773,15.773,0,0,0-8.58367,3.32033V14.71193a28.51117,28.51117,0,0,1,4.18477,2.29439,5.06341,5.06341,0,0,0,1.947-.68668c1.26027-.95733,1.08658-1.67231-.97348-2.36707a22.26676,22.26676,0,0,0-5.15831-.97755Zm0,30.776a7.86577,7.86577,0,0,0,5.76419,2.47209c2.08835-.10909,4.0959-1.59957,6.31356-3.595-1.58343,4.16456-5.28757,8.39384-12.07775,12.72808ZM101.96977,14.71193c33.73281,1.737,59.07986.65038,76.99448-3.599a35.90961,35.90961,0,0,1,7.8364-1.28049V12.975a57.53647,57.53647,0,0,0-6.91944-.08481,22.81476,22.81476,0,0,1,6.91944,1.82172V25.96967A10.6349,10.6349,0,0,0,184.482,28.6599a8.05873,8.05873,0,0,0-.48063,7.71929,12.76008,12.76008,0,0,0,2.79926,4.22921V52.21353c-.06867.04444-.13332.09288-.19792.12925-2.53268-6.39436-5.57435-10.38523-9.60966-11.36678-4.44334-1.08665-9.9086,1.42588-14.50948,7.46473-3.44557,4.53215-4.51193,7.178-9.90853,8.1757a24.75408,24.75408,0,0,1-4.70992.45241,11.72311,11.72311,0,0,0,4.96842-4.85531l8.2888-17.131c1.55921-3.25173.30294-5.46933-2.80332-5.38045l-2.86392.08882L167.29853,21.591a2.32008,2.32008,0,0,0,.28279-3.2961c-.77963-.78364-2.23381-1.127-4.2535-1.08659-35.59089.54129-49.49442-.88866-61.358-2.49637" transform="translate(-3.44394 -2)"/>
  <path class="cls-2" d="M63.01566,13.8693V12.58887a.29656.29656,0,0,0,.28272-.12931.78254.78254,0,0,0,.08888-.45641V6.71158a.74269.74269,0,0,0-.08888-.46049c-.04037-.0808-.14947-.10909-.28272-.10909V4.84136a1.1218,1.1218,0,0,1,.24235-.21413,1.524,1.524,0,0,1,.86845-.24235,1.24916,1.24916,0,0,1,1.03813.416,1.86576,1.86576,0,0,1,.34332,1.21583v6.70137a1.83794,1.83794,0,0,1-.34332,1.19161,1.224,1.224,0,0,1-1.03813.41605,1.451,1.451,0,0,1-.90889-.28273,1.544,1.544,0,0,1-.20191-.17375m6.55584.28279a3.19471,3.19471,0,0,1-.60995,1.64808,1.83154,1.83154,0,0,1-1.34508.42812H65.83914V14.69738h.88466a.55647.55647,0,0,0,.307-.06866.272.272,0,0,0,.08887-.23829.81475.81475,0,0,0-.02422-.1899,3.10777,3.10777,0,0,0-.06465-.50492l-1.38953-9.137h2.17317l.35952,4.79879c.02422.21813.02422.517.04844.90482.02429.39582.04444.87252.07273,1.442h.0283c.04844-.35138.07266-.715.12117-1.1108.01615-.39589.0646-.87252.12525-1.45825l.47663-4.57659h1.97524ZM63.01566,4.84136V6.142a.35444.35444,0,0,0-.29894.13732.73481.73481,0,0,0-.08888.43226v5.29157a.7051.7051,0,0,0,.08888.42818.37008.37008,0,0,0,.29894.15754V13.8693a1.92522,1.92522,0,0,1-.38782-.60989h-.02422v.824H60.52334V2.17535h2.1045V5.3705h.04444a1.51837,1.51837,0,0,1,.34338-.52914M54.21385,13.8693V12.58887a.31475.31475,0,0,0,.28273-.15754.72435.72435,0,0,0,.101-.42818V6.71158a.75674.75674,0,0,0-.101-.43226.30161.30161,0,0,0-.28273-.13732V4.84136a1.79616,1.79616,0,0,1,.34738.52914h.03631V2.17535H56.686V14.08342h-2.056v-.824h-.03236a2.071,2.071,0,0,1-.38369.60989m0-9.02794V6.142c-.12931,0-.23834.02829-.28278.10909a.77214.77214,0,0,0-.08888.46049v5.29157a.81575.81575,0,0,0,.08888.45641.3051.3051,0,0,0,.28278.12931V13.8693a1.15432,1.15432,0,0,1-.202.17375,1.47052,1.47052,0,0,1-.9291.28273,1.14058,1.14058,0,0,1-.99363-.41605,1.70844,1.70844,0,0,1-.34738-1.19161V6.01675a1.80934,1.80934,0,0,1,.34738-1.232,1.20581,1.20581,0,0,1,.99363-.39989,1.43115,1.43115,0,0,1,.86852.24235.88145.88145,0,0,1,.26256.21413m-5.57842,9.48442v-1.5875a.33347.33347,0,0,0,.28679-.12518.88347.88347,0,0,0,.08487-.46455V10.37121h2.1045v1.77734a1.9967,1.9967,0,0,1-.65032,1.5915,2.65064,2.65064,0,0,1-1.82584.58573m0-4.70585V8.20206h.37166V6.40457a.83359.83359,0,0,0-.08487-.45241.33878.33878,0,0,0-.28679-.13332V4.32429a2.91816,2.91816,0,0,1,1.82584.55744,1.87748,1.87748,0,0,1,.65032,1.50262V9.61993Zm0-5.29564V5.81884a.37075.37075,0,0,0-.30294.13332,1.08287,1.08287,0,0,0-.08481.45241V8.20206h.38775V9.61993h-.38775v2.52862a1.15115,1.15115,0,0,0,.08481.46455.36566.36566,0,0,0,.30294.12518v1.5875a2.52156,2.52156,0,0,1-1.90252-.63017,2.953,2.953,0,0,1-.56958-2.08428V7.03473a2.99988,2.99988,0,0,1,.56958-2.10049,2.49518,2.49518,0,0,1,1.88236-.60995ZM37.27272,14.32578v-1.5875a.29893.29893,0,0,0,.28272-.12518.814.814,0,0,0,.1091-.46455V10.37121h2.08027v1.77734a1.96131,1.96131,0,0,1-.65439,1.5915,2.62162,2.62162,0,0,1-1.8177.58573m0-4.70585V8.20206h.39182V6.40457a.769.769,0,0,0-.1091-.45241.303.303,0,0,0-.28272-.13332V4.32429a2.80536,2.80536,0,0,1,1.8177.55744,1.844,1.844,0,0,1,.65439,1.50262V9.61993Zm3.14664,4.46349V4.55857h2.06005V5.3705h.04851a1.73688,1.73688,0,0,1,.622-.74327,1.48081,1.48081,0,0,1,.86851-.24235,1.18346,1.18346,0,0,1,1.01792.416,1.73658,1.73658,0,0,1,.34738,1.21583v3.6597H43.255V6.71158a1.07267,1.07267,0,0,0-.06059-.46049.36425.36425,0,0,0-.30294-.10909.33665.33665,0,0,0-.28679.13732.81816.81816,0,0,0-.07674.43226v7.37184ZM37.27272,4.32429V5.81884a.31192.31192,0,0,0-.28279.13332.79188.79188,0,0,0-.08888.45241V8.20206h.37167V9.61993h-.37167v2.52862a.83878.83878,0,0,0,.08888.46455.3075.3075,0,0,0,.28279.12518v1.5875a2.54848,2.54848,0,0,1-1.91066-.63017,3.08178,3.08178,0,0,1-.55743-2.08428V7.03473a3.02424,3.02424,0,0,1,.55743-2.10049,2.52229,2.52229,0,0,1,1.89044-.60995ZM23.17528,14.32578v-1.5875a.37937.37937,0,0,0,.307-.12518,1.16549,1.16549,0,0,0,.08075-.46455v-5.744a.81962.81962,0,0,0-.105-.45241.30727.30727,0,0,0-.28272-.13332V4.32429a2.57833,2.57833,0,0,1,1.88636.63017,2.97807,2.97807,0,0,1,.58573,2.08027v4.5766a2.98275,2.98275,0,0,1-.58573,2.08428,2.51175,2.51175,0,0,1-1.88636.63017m3.94649-.24236L25.817,4.55857h2.12879l.416,4.93205c.02022.32316.02022.64631.03636,1.03813,0,.35953.02423.77557.02423,1.19161H28.483c.02422-.78364.09294-1.58343.18176-2.34284a.71621.71621,0,0,1,.01615-.12519l.52921-4.69376h2.20952l.412,4.93205c.02015.06059.02015.32316.04037.79985.02022.50085.04845.97348.06866,1.42989h.08481c.02022-.71091.08888-1.42989.14947-2.16915a1.83592,1.83592,0,0,0,.02422-.29888l.43626-4.69376h2.01568l-1.40973,9.52485H30.80969l-.38781-4.36253c-.02016-.1454-.02016-.412-.04845-.82-.02021-.39182-.04444-.84423-.04444-1.39359h-.0808c-.02016.719-.09289,1.39359-.15348,2.04391v.02428l-.56144,4.50793ZM17.79483,7.13163V4.36873a.83516.83516,0,0,0-.12925-.54535.78086.78086,0,0,0-.25851-.105v-1.543a3.40423,3.40423,0,0,1,2.10043.52508,1.9567,1.9567,0,0,1,.65439,1.62386V6.8812a2.58272,2.58272,0,0,1-.65439,1.97525,3.27331,3.27331,0,0,1-2.10043.58979V7.77794a.475.475,0,0,0,.25851-.14139.69629.69629,0,0,0,.12925-.50492m5.38045-2.80734V5.81884h-.02022a.273.273,0,0,0-.26257.13332.82743.82743,0,0,0-.08882.45241v5.744a.87688.87688,0,0,0,.08882.46455.3075.3075,0,0,0,.28279.12518v1.5875h-.02022a2.47083,2.47083,0,0,1-1.88236-.63017,2.9622,2.9622,0,0,1-.58974-2.08428V7.03473a2.95755,2.95755,0,0,1,.58974-2.08027,2.45547,2.45547,0,0,1,1.88236-.63017Zm-5.76821-.60594a1.34165,1.34165,0,0,0-.307-.02016h-.08888v4.0959h.15347c.08888,0,.17369-.01615.24241-.01615v1.6683h-.39588v4.63718H14.632V2.17535h2.77509Z" transform="translate(-3.44394 -2)"/>
  <rect class="cls-1" x="0.00949" width="209.54657" height="54.93145"/>
  <path class="cls-2" d="M112.66558,56.02867V50.41394h5.748v.97755h-4.44734v1.228h2.58519v.96541h-2.58519v1.38551H118.454v1.05829Zm-88.947,0V54.97038a2.83676,2.83676,0,0,0,1.51883-.412,1.64361,1.64361,0,0,0,.56551-1.38545,1.774,1.774,0,0,0-.46048-1.31284,2.04866,2.04866,0,0,0-1.38145-.4322h-.24241V50.41394H23.961a3.60734,3.60734,0,0,1,2.363.7352,2.60406,2.60406,0,0,1,.824,2.0399,3.03982,3.03982,0,0,1-.32716,1.41374,2.46072,2.46072,0,0,1-.917.99777,2.584,2.584,0,0,1-.90482.31909,6.45507,6.45507,0,0,1-1.28048.109m74.11447,0V50.41394h.88059l3.95457,3.32039c.12518.1091.2585.21407.36353.29894.09288.109.19791.19791.28272.30694-.02422-.32309-.04037-.54529-.04037-.67454a1.71925,1.71925,0,0,1-.02022-.30294V50.41394h1.17546v5.61473h-.90075L99.41644,52.567c-.08481-.08888-.18176-.15754-.26658-.24642a1.69463,1.69463,0,0,1-.1899-.21406,3.07951,3.07951,0,0,0,.04044.49278v3.42942Zm-9.65817-5.61473h1.3007v5.61473h-1.3007ZM78.5894,51.42785H74.50965v3.54253H78.5894v-1.236H76.46875v-.9654h3.40114v1.943A1.3473,1.3473,0,0,1,79.567,55.746a1.48134,1.48134,0,0,1-1.08658.28272H74.59853a1.56613,1.56613,0,0,1-1.10679-.28272,1.46316,1.46316,0,0,1-.28279-1.03407V51.75909a1.6019,1.6019,0,0,1,.28279-1.06236,1.69836,1.69836,0,0,1,1.10679-.28279h3.88184a1.67976,1.67976,0,0,1,1.08658.28279,1.363,1.363,0,0,1,.30294.9977v.12524L78.5894,52.062ZM58.48547,56.02867V50.41394h.8846l3.95457,3.32039c.12925.1091.23427.21407.34738.29894.101.109.1939.19791.28272.30694-.02422-.32309-.02422-.54529-.04844-.67454V50.41394h1.17139v5.61473h-.88861L60.06483,52.567a1.32165,1.32165,0,0,1-.25042-.24642.93064.93064,0,0,1-.22214-.21406c.01615.17369.04845.34738.04845.49278a3.69849,3.69849,0,0,1,.01615.39989v3.02953Zm-13.6854,0V50.41394h5.75205v.97755H46.10071v1.228h2.60141v.96541H46.10071v1.38551h4.48778v1.05829ZM23.71854,50.41394v1.01391H21.63425v3.54253h2.08429v1.05829h-3.385V50.41394ZM7.41163,56.02867a1.6569,1.6569,0,0,1-1.026-.23828,1.10919,1.10919,0,0,1-.2585-.86445v-.46048l1.15123-.23428V55.031h3.03761a.70905.70905,0,0,0,.43219-.105.60342.60342,0,0,0,.1131-.412v-.38776c0-.21813-.04844-.35545-.13732-.412-.06059-.09289-.21006-.109-.408-.109H8.40126v-.91289h1.69246a.65322.65322,0,0,0,.43225-.1131.55922.55922,0,0,0,.11711-.408V51.8924a.63822.63822,0,0,0-.11711-.4161.6789.6789,0,0,0-.43225-.08481h-2.771v.69075l-1.11086-.22219v-.34332a1.15545,1.15545,0,0,1,.26257-.86845,1.692,1.692,0,0,1,1.01791-.23434H10.526a1.6865,1.6865,0,0,1,1.026.23434,1.15656,1.15656,0,0,1,.25449.86845v.52508a.966.966,0,0,1-.23835.715,1.32968,1.32968,0,0,1-.84422.3393,1.90654,1.90654,0,0,1,1.00177.33123,1.10713,1.10713,0,0,1,.30294.80386v.60588a1.12806,1.12806,0,0,1-.30294.93311,1.59746,1.59746,0,0,1-1.04215.2585Z" transform="translate(-3.44394 -2)"/>
  <path class="cls-2" d="M113.23233,47.50929V44.25756h5.37638l10.70838-21.88934h-6.24082l-9.84394,20.13222V29.46135l5.04921-10.30042h14.53364l.93718.06466c.18984.06059.36353.08481.49684.12518.12519.02829.23428.04851.34739.06866a1.32952,1.32952,0,0,1,1.127,1.20782,3.3094,3.3094,0,0,1-.4807,2.565l-9.545,19.494a12.46987,12.46987,0,0,1-1.25626,2.08428,8.15918,8.15918,0,0,1-1.69247,1.56328,7.55037,7.55037,0,0,1-1.9753.93711,9.76829,9.76829,0,0,1-2.18931.23835Zm0-21.62683a7.95907,7.95907,0,0,0,.77957-4.5766,2.88562,2.88562,0,0,0-.77957-1.42995Zm0-6.00655v6.00655c-.08888.19791-.17776.3716-.26664.56958a14.12013,14.12013,0,0,1-3.05375,4.11611c-.23829.19791-.45642.38775-.69477.56551V19.16093h1.75712a3.29241,3.29241,0,0,1,2.258.715m0,9.58544-4.01516,8.13527v9.91267h4.01516V44.25756h-.87252l.87252-1.75712Zm-4.01516-10.30042V31.13366a12.58848,12.58848,0,0,1-1.434,1.01385c-.50091.32722-1.03813.63016-1.57942.917V26.09652l1.79755-3.74852h-1.79755V19.16093Zm0,18.43569v9.91267h-3.01338V43.77692Zm-3.01338,1.38151,1.25627-2.61756-1.25627-1.87022Zm0-16.63013h-3.60718V19.16093h3.60718Zm0,3.74852v6.96795c-.23834.10909-.50085.21005-.75941.32315l.75941,1.10273v4.48778l-3.60718,7.3557V31.75976h.82407Zm0,17.6804L104.378,47.50929h1.82578Zm-3.60718-24.616V22.348h-.81994l-4.60088,9.41176h5.42082V46.33383l-.56144,1.17546H95.70139l6.16009-12.57861H95.661l-6.16,12.57861H88.09126V37.29368l8.89062-18.13275ZM88.09126,32.5434,93.0839,22.348l-1.67231-3.17092H88.09126Zm0-13.36632V32.5434L80.76379,47.50929H74.422l6.18831-12.623H74.38564l-6.18831,12.623,7.72329-15.74953h6.3135l4.617-9.436H80.54566L68.19733,47.50929H66.70278V37.57646L74.16751,22.348l4.96441-3.17092Zm0,18.1166L83.08242,47.50929h5.00884ZM66.70278,32.04655a21.84041,21.84041,0,0,0,1.9954-1.97525,14.01971,14.01971,0,0,0,1.842-2.86392,7.20477,7.20477,0,0,0,.719-5.68745,4.03059,4.03059,0,0,0-4.07975-2.38322h-.47663Zm0-12.90984V32.04655c-.19391.16561-.408.34738-.62616.52107a9.925,9.925,0,0,1-5.79242,2.31862H53.36876l-6.18831,12.623,7.7233-15.74953h6.2489l4.621-9.436H59.52885L47.18045,47.50929h-.58166V35.69l8.111-16.55332Zm0,18.43975-4.85537,9.93283h4.85537Zm-20.104-15.29311H50.828l1.539-3.12242h-5.7682ZM28.05,32.71709l.48064-.95733H28.05Zm0-10.39331h1.89445L28.357,25.58352h3.21536l1.31686-2.71444c.50085-1.04215.63417-1.82579.3716-2.29434a2.324,2.324,0,0,0-.7392-1.026L31.6329,19.266l-.97754-.105H28.05Zm18.54879-3.16285v3.12242H41.392l-4.64125,9.47641h6.33778l-1.51883,3.12648H35.27639l-4.59681,9.37132h9.3956L38.512,47.42041H28.05V36.53426l8.52709-17.37333Zm0,16.5291L40.80631,47.50929h5.79248ZM3.97931,43.25579A3.33773,3.33773,0,0,0,3.58749,45.946a2.67369,2.67369,0,0,0,1.11086,1.236l.73113.21006a3.96185,3.96185,0,0,0,1.11487.11717h9.86009a7.41474,7.41474,0,0,0,2.12472-.32723,4.08054,4.08054,0,0,0,1.85006-.97348,8.95707,8.95707,0,0,0,1.539-1.438,9.26415,9.26415,0,0,0,1.08257-1.75711L28.05,32.71709v-.95733H18.98964l-1.543,3.12648h3.34055l-4.617,9.41175H9.84046L20.59328,22.32378H28.05V19.16093H20.26612a7.07156,7.07156,0,0,0-3.7728,1.19161A7.76562,7.76562,0,0,0,13.65363,23.479ZM28.05,36.53426V47.42041H22.718Z" transform="translate(-3.44394 -2)"/>
  <rect class="cls-1" x="0.00949" width="206.16158" height="54.93145"/>
  <path class="cls-3" d="M139.88255,18.61718h25.48437a.91982.91982,0,0,1,.90889.917.86886.86886,0,0,1-.38782.73519L150.42526,30.67472h1.99546a5.96631,5.96631,0,0,1,2.60135.54128,3.85306,3.85306,0,0,1,1.58749,1.41381,3.76847,3.76847,0,0,1,.53722,2.04391,5.83522,5.83522,0,0,1-.67454,2.61749l-7.06891,14.1621a.47033.47033,0,0,0-.04043.08882,8.71779,8.71779,0,0,1-.78358,1.21589,10.86822,10.86822,0,0,1-1.03813,1.17139,11.30389,11.30389,0,0,1-7.23859,3.25173h-12.825a6.27576,6.27576,0,0,1-2.83562-.58573,3.62385,3.62385,0,0,1-2.08835-3.34054,5.35107,5.35107,0,0,1,.58572-2.33884l1.62787-3.27589a.91755.91755,0,0,1,.82808-.50092h4.205a.9.9,0,0,1,.89267.91289.996.996,0,0,1-.1131.43226l-1.28449,2.56091h10.06608l7.16585-14.35995H135.89162a.90105.90105,0,0,1-.8846-.91289.88688.88688,0,0,1,.109-.42818l1.951-3.90606a.994.994,0,0,1,.3716-.42011l9.945-6.49933h-9.60158a.92332.92332,0,0,1-.9129-.917,1.03343,1.03343,0,0,1,.109-.42818l2.01161-4.05959a.916.916,0,0,1,.89274-.49685" transform="translate(-3.44394 -2)"/>
  <path class="cls-4" d="M139.79934,19.53254h25.57325l-17.89846,12.0293h4.94825c3.31633,0,4.722,2.36707,3.25574,5.31986l-7.073,14.18626a10.53252,10.53252,0,0,1-8.305,5.20269h-12.821c-3.75258,0-4.75435-2.49631-3.53852-4.94819l1.65209-3.27189h4.20906l-1.9591,3.88184h12.08583l8.05046-16.16157H135.88921l1.97926-3.93835,12.514-8.22822H137.77965Z" transform="translate(-3.44394 -2)"/>
  <rect class="cls-1" x="0.00949" width="209.54657" height="54.93145"/>
</svg>
