<svg id="Layer_1" data-name="Layer 1" xmlns="http://www.w3.org/2000/svg" xmlns:xlink="http://www.w3.org/1999/xlink" viewBox="0 0 276.03 285.45"><defs><style>.cls-1{fill:none;}.cls-2{clip-path:url(#clip-path);}.cls-3,.cls-5{fill:#fff;}.cls-3,.cls-6,.cls-7{fill-rule:evenodd;}.cls-4{clip-path:url(#clip-path-2);}.cls-6{fill:#0094d9;}.cls-7{fill:#231f20;}</style><clipPath id="clip-path" transform="translate(-0.44 211.97)"><rect class="cls-1" x="0.45" y="-0.4" width="280.55" height="73.54"/></clipPath><clipPath id="clip-path-2" transform="translate(-0.44 211.97)"><rect class="cls-1" x="0.45" y="-0.4" width="276.01" height="73.54"/></clipPath></defs><title>Gepard3</title><g class="cls-2"><path class="cls-3" d="M245.92-201.72h.47c4,.08,7.49,1.74,11.4,3.54a17.17,17.17,0,0,0,6,1.14c5.82.36,10.49,1.35,12.64,3.25-.7,1.28-1.36,2.55-2.06,3.83a10.62,10.62,0,0,0-.88,3.92,34.78,34.78,0,0,1-5.89,15.33,26.24,26.24,0,0,1-4.18,5c4.91-9.61,6.24-14.75,2.93-17.25-1.74-1.3-4.7-2.09-9-1.62a21.12,21.12,0,0,0-11.5,4.44v-15.07a38.54,38.54,0,0,1,5.61,3.07,6.63,6.63,0,0,0,2.6-.92c1.69-1.28,1.46-2.24-1.3-3.17a30.16,30.16,0,0,0-6.91-1.31Zm0,41.2a10.54,10.54,0,0,0,7.72,3.31c2.8-.15,5.48-2.14,8.45-4.81-2.12,5.57-7.08,11.24-16.17,17ZM132.35-195.19c45.16,2.33,79.1.87,103.08-4.82a48.44,48.44,0,0,1,10.49-1.71v4.2a78.63,78.63,0,0,0-9.26-.11,30.67,30.67,0,0,1,9.26,2.44v15.07a14.31,14.31,0,0,0-3.1,3.6,10.77,10.77,0,0,0-.64,10.34,17.17,17.17,0,0,0,3.74,5.66V-145l-.26.17c-3.39-8.56-7.46-13.9-12.87-15.22-5.95-1.45-13.26,1.91-19.42,10-4.62,6.06-6,9.61-13.27,10.94a33,33,0,0,1-6.3.61,15.72,15.72,0,0,0,6.65-6.5l11.09-22.94c2.09-4.35.41-7.32-3.75-7.2L204-175l15.85-11a3.1,3.1,0,0,0,.38-4.41c-1-1.05-3-1.52-5.69-1.46-47.65.73-66.27-1.19-82.15-3.34" transform="translate(-0.44 211.97)"/><path class="cls-3" d="M80.2-196.32V-198a.4.4,0,0,0,.38-.18,1,1,0,0,0,.11-.61v-7.08a1,1,0,0,0-.11-.62c-.06-.11-.2-.14-.38-.14v-1.74a1.47,1.47,0,0,1,.32-.29,2,2,0,0,1,1.16-.33,1.64,1.64,0,0,1,1.39.57,2.41,2.41,0,0,1,.46,1.62v9a2.42,2.42,0,0,1-.46,1.6,1.62,1.62,0,0,1-1.39.55,1.92,1.92,0,0,1-1.21-.38,1.84,1.84,0,0,1-.27-.23m8.77.38a4.24,4.24,0,0,1-.81,2.21,2.43,2.43,0,0,1-1.8.57H84v-2.05h1.18a.73.73,0,0,0,.41-.09.35.35,0,0,0,.12-.32,1.13,1.13,0,0,0,0-.25,4.2,4.2,0,0,0-.09-.68l-1.86-12.23h2.91l.48,6.42c0,.29,0,.69.07,1.21s.06,1.17.1,1.93h0c.07-.47.1-.95.17-1.48s.08-1.17.16-2l.64-6.12h2.65ZM80.2-208.4v1.74a.46.46,0,0,0-.4.18,1,1,0,0,0-.12.58v7.08a1,1,0,0,0,.12.58.49.49,0,0,0,.4.21v1.71a2.57,2.57,0,0,1-.52-.81h0v1.1H76.86V-212h2.82v4.27h.06a2,2,0,0,1,.46-.7M68.41-196.32V-198a.41.41,0,0,0,.38-.21,1,1,0,0,0,.14-.58v-7.08a1,1,0,0,0-.14-.58.4.4,0,0,0-.38-.18v-1.74a2.39,2.39,0,0,1,.47.7h.05V-212h2.79V-196H69v-1.1h0a3,3,0,0,1-.52.81m0-12.08v1.74c-.17,0-.32,0-.38.14a1.11,1.11,0,0,0-.11.62v7.08a1.13,1.13,0,0,0,.11.61.41.41,0,0,0,.38.18v1.71a1.18,1.18,0,0,1-.27.23,2,2,0,0,1-1.24.38,1.53,1.53,0,0,1-1.33-.55,2.27,2.27,0,0,1-.47-1.6v-9a2.39,2.39,0,0,1,.47-1.65A1.61,1.61,0,0,1,66.9-209a1.89,1.89,0,0,1,1.16.33,1,1,0,0,1,.35.29m-7.47,12.69v-2.12a.46.46,0,0,0,.39-.17,1.18,1.18,0,0,0,.11-.62V-201h2.82v2.38a2.68,2.68,0,0,1-.87,2.13,3.55,3.55,0,0,1-2.45.78m0-6.3v-1.9h.5v-2.4a1.16,1.16,0,0,0-.11-.61.46.46,0,0,0-.39-.17v-2a3.91,3.91,0,0,1,2.45.75,2.52,2.52,0,0,1,.87,2V-202Zm0-7.09v2a.5.5,0,0,0-.4.17,1.57,1.57,0,0,0-.11.61v2.4h.51v1.9h-.51v3.39a1.59,1.59,0,0,0,.11.62.5.5,0,0,0,.4.17v2.12a3.34,3.34,0,0,1-2.54-.84,3.92,3.92,0,0,1-.76-2.79v-6.13a4,4,0,0,1,.76-2.81,3.35,3.35,0,0,1,2.52-.82ZM45.73-195.71v-2.12a.41.41,0,0,0,.38-.17,1,1,0,0,0,.15-.62V-201H49v2.38a2.62,2.62,0,0,1-.87,2.13,3.52,3.52,0,0,1-2.44.78m0-6.3v-1.9h.53v-2.4a1,1,0,0,0-.15-.61.41.41,0,0,0-.38-.17v-2a3.78,3.78,0,0,1,2.44.75,2.46,2.46,0,0,1,.87,2V-202Zm4.21,6v-12.75H52.7v1.08h.07a2.32,2.32,0,0,1,.83-1,2,2,0,0,1,1.16-.33,1.58,1.58,0,0,1,1.37.57,2.31,2.31,0,0,1,.46,1.62v4.9H53.74v-4a1.44,1.44,0,0,0-.08-.62.49.49,0,0,0-.41-.14.45.45,0,0,0-.38.18,1.1,1.1,0,0,0-.1.58V-196ZM45.73-209.1v2a.42.42,0,0,0-.38.17,1.14,1.14,0,0,0-.12.61v2.4h.5v1.9h-.5v3.39a1.16,1.16,0,0,0,.12.62.42.42,0,0,0,.38.17v2.12a3.41,3.41,0,0,1-2.56-.84,4.13,4.13,0,0,1-.74-2.79v-6.13a4,4,0,0,1,.74-2.81,3.42,3.42,0,0,1,2.54-.82ZM26.86-195.71v-2.12a.52.52,0,0,0,.41-.17,1.59,1.59,0,0,0,.11-.62v-7.69a1.16,1.16,0,0,0-.14-.61.42.42,0,0,0-.38-.17v-2a3.45,3.45,0,0,1,2.52.85,3.93,3.93,0,0,1,.79,2.78v6.13a4,4,0,0,1-.79,2.79,3.32,3.32,0,0,1-2.52.84m5.28-.32-1.75-12.75h2.85l.56,6.6c0,.43,0,.87.05,1.4s0,1,0,1.59H34c0-1.05.13-2.12.25-3.14a1.09,1.09,0,0,1,0-.17l.71-6.28h3l.55,6.6c0,.08,0,.43,0,1.07s.07,1.3.09,1.92h.12c0-1,.12-1.92.2-2.91a2.64,2.64,0,0,0,0-.4l.58-6.28h2.7L40.33-196H37.08l-.52-5.84c0-.2,0-.55-.06-1.1s-.06-1.13-.06-1.87h-.11c0,1-.13,1.87-.21,2.74v0l-.75,6Zm-12.49-9.31V-209a1.12,1.12,0,0,0-.17-.73,1.09,1.09,0,0,0-.34-.14V-212a4.58,4.58,0,0,1,2.81.7,2.61,2.61,0,0,1,.87,2.17v3.43A3.44,3.44,0,0,1,22-203a4.42,4.42,0,0,1-2.81.79v-2.23a.71.71,0,0,0,.34-.19,1,1,0,0,0,.17-.68m7.21-3.76v2h0a.37.37,0,0,0-.35.17,1.14,1.14,0,0,0-.12.61v7.69a1.16,1.16,0,0,0,.12.62.42.42,0,0,0,.38.17v2.12h0a3.29,3.29,0,0,1-2.52-.84,4,4,0,0,1-.79-2.79v-6.13a3.93,3.93,0,0,1,.79-2.78,3.3,3.3,0,0,1,2.52-.85Zm-7.72-.81a1.72,1.72,0,0,0-.42,0h-.11v5.49h.2l.33,0v2.23h-.53V-196H15.42V-212h3.72Z" transform="translate(-0.44 211.97)"/></g><g class="cls-4"><path class="cls-3" d="M146.67-139.87v-7.52h7.7v1.31h-6v1.64h3.46v1.29h-3.46v1.86h6v1.42Zm-119.08,0v-1.42a3.8,3.8,0,0,0,2-.55,2.21,2.21,0,0,0,.76-1.86,2.35,2.35,0,0,0-.62-1.75,2.7,2.7,0,0,0-1.85-.58h-.32v-1.36h.32a4.85,4.85,0,0,1,3.16,1,3.49,3.49,0,0,1,1.11,2.73,4,4,0,0,1-.44,1.89,3.19,3.19,0,0,1-1.23,1.34,3.36,3.36,0,0,1-1.21.43,8.73,8.73,0,0,1-1.71.15m99.22,0v-7.52H128l5.3,4.44c.16.15.34.29.48.4s.27.27.38.42c0-.44-.05-.73-.05-.91a2,2,0,0,1,0-.4v-3.95h1.57v7.52h-1.2l-5.51-4.64c-.11-.12-.24-.21-.36-.33a2.63,2.63,0,0,1-.25-.29,4.33,4.33,0,0,0,.05.66v4.6Zm-12.93-7.52h1.74v7.52h-1.74ZM101.05-146H95.59v4.74h5.46v-1.66H98.21v-1.29h4.55v2.6a1.83,1.83,0,0,1-.4,1.39,2,2,0,0,1-1.46.38H95.7a2.12,2.12,0,0,1-1.48-.38,2,2,0,0,1-.38-1.39v-4a2.14,2.14,0,0,1,.38-1.42,2.29,2.29,0,0,1,1.48-.38h5.2a2.29,2.29,0,0,1,1.46.38,1.84,1.84,0,0,1,.4,1.33v.17l-1.71.33Zm-26.92,6.16v-7.52h1.19l5.29,4.44a5.29,5.29,0,0,0,.47.4c.13.15.26.27.37.42,0-.44,0-.73-.06-.91v-4.35H83v7.52H81.77l-5.52-4.64a1.79,1.79,0,0,1-.34-.33,1.18,1.18,0,0,1-.3-.29,6,6,0,0,1,.07.66c0,.22,0,.39,0,.54v4.06Zm-18.32,0v-7.52h7.7v1.31h-6v1.64H61v1.29H57.55v1.86h6v1.42Zm-28.22-7.52V-146h-2.8v4.74h2.8v1.42H23.05v-7.52ZM5.75-139.87a2.25,2.25,0,0,1-1.37-.32A1.5,1.5,0,0,1,4-141.35V-142l1.54-.31v1.07H9.64a.93.93,0,0,0,.58-.14.8.8,0,0,0,.15-.55v-.52c0-.29-.06-.48-.18-.55s-.28-.15-.55-.15H7.08v-1.22H9.34a.88.88,0,0,0,.58-.15.74.74,0,0,0,.16-.55v-.37a.83.83,0,0,0-.16-.56.92.92,0,0,0-.58-.11H5.63v.92l-1.48-.29v-.46a1.57,1.57,0,0,1,.35-1.17,2.25,2.25,0,0,1,1.36-.31H9.92a2.28,2.28,0,0,1,1.38.31,1.57,1.57,0,0,1,.34,1.17v.7a1.32,1.32,0,0,1-.32,1,1.84,1.84,0,0,1-1.13.45,2.54,2.54,0,0,1,1.34.45,1.46,1.46,0,0,1,.4,1.07v.81a1.51,1.51,0,0,1-.4,1.25,2.17,2.17,0,0,1-1.4.35Z" transform="translate(-0.44 211.97)"/><path class="cls-3" d="M147.43-151.28v-4.35h7.2L169-184.94h-8.35L147.43-158v-17.45l6.76-13.79h19.46l1.25.08c.26.08.49.12.67.17l.46.09a2.26,2.26,0,0,1,.54.18c.39.17.7.66,1,1.44s.11,1.93-.64,3.43l-12.78,26.1a17.14,17.14,0,0,1-1.68,2.79,11.13,11.13,0,0,1-2.27,2.1,10.15,10.15,0,0,1-2.64,1.25,13.17,13.17,0,0,1-2.94.32Zm0-28.95a10.66,10.66,0,0,0,1-6.13,3.88,3.88,0,0,0-1-1.92Zm0-8.05v8.05c-.12.26-.24.49-.36.76A18.8,18.8,0,0,1,143-174c-.32.26-.61.52-.93.76v-16h2.36a4.46,4.46,0,0,1,3,.95m0,12.84-5.38,10.89v13.27h5.38v-4.35h-1.17l1.17-2.36Zm-5.38-13.79v16a16.15,16.15,0,0,1-1.92,1.35c-.67.44-1.39.85-2.11,1.23v-9.33l2.41-5H138v-4.26Zm0,24.68v13.27h-4v-5Zm-4,1.85,1.68-3.51-1.68-2.5ZM138-185h-4.83v-4.26H138Zm0,5v9.33c-.32.15-.67.28-1,.43l1,1.48v6l-4.83,9.85v-19.52h1.1Zm0,23.67-2.45,5H138Zm-4.83-32.95V-185h-1.1l-6.16,12.6h7.26v19.52l-.75,1.57H124l8.25-16.84H123.9l-8.24,16.84h-1.89V-165l11.9-24.27Zm-19.42,17.91L120.45-185l-2.24-4.24h-4.44Zm0-17.89v17.89l-9.81,20H95.47l8.28-16.9H95.42l-8.29,16.9,10.34-21.09h8.46L112.11-185h-8.44L87.13-151.28h-2v-13.3l10-20.39,6.64-4.24Zm0,24.25-6.71,13.68h6.71Zm-28.64-7a29,29,0,0,0,2.68-2.65,19,19,0,0,0,2.46-3.83c1.43-2.9,1.75-5.43,1-7.62s-2.75-3.19-5.46-3.19h-.64Zm0-17.29V-172l-.83.7c-2.76,2.05-5.35,3.1-7.76,3.1H67.28L59-151.28l10.34-21.09H77.7L83.89-185H75.53L59-151.28h-.78V-167.1l10.86-22.17Zm0,24.69-6.5,13.3h6.5ZM58.22-185h5.66l2.06-4.18H58.22Zm-24.84,14,.65-1.29h-.65Zm0-13.92h2.54l-2.12,4.37h4.3l1.76-3.64c.67-1.39.85-2.44.5-3.07a3,3,0,0,0-1-1.37l-1.19-.38-1.31-.14H33.38Zm24.84-4.23V-185h-7L45-172.37h8.49l-2,4.19H43.06l-6.15,12.55H49.48l-2.09,4.23h-14V-166L44.8-189.23Zm0,22.13-7.76,15.82h7.76ZM1.16-157a4.48,4.48,0,0,0-.53,3.6,3.6,3.6,0,0,0,1.49,1.65l1,.28a5,5,0,0,0,1.49.16h13.2a10,10,0,0,0,2.85-.44,5.35,5.35,0,0,0,2.47-1.3,12,12,0,0,0,2.07-1.93,12.59,12.59,0,0,0,1.44-2.34l6.76-13.79v-1.29H21.25l-2.06,4.19h4.47l-6.18,12.6H9L23.4-185h10v-4.23H23a9.53,9.53,0,0,0-5.05,1.59,10.44,10.44,0,0,0-3.8,4.19Zm32.22-9v14.57H26.25Z" transform="translate(-0.44 211.97)"/></g><g class="cls-2"><path class="cls-5" d="M183.11-190h34.12a1.22,1.22,0,0,1,1.21,1.23,1.15,1.15,0,0,1-.51,1l-20.71,13.93h2.67a8,8,0,0,1,3.49.73,5.08,5.08,0,0,1,2.12,1.89,5,5,0,0,1,.72,2.74,7.74,7.74,0,0,1-.9,3.5l-9.46,19s0,.07-.06.12a11.23,11.23,0,0,1-1.05,1.63,14,14,0,0,1-1.39,1.57c-2.61,2.52-6.44,4.35-9.69,4.35H166.5a8.37,8.37,0,0,1-3.8-.79,4.93,4.93,0,0,1-2.09-1.88,5,5,0,0,1-.7-2.59,7.23,7.23,0,0,1,.78-3.13l2.18-4.38a1.24,1.24,0,0,1,1.11-.68h5.63a1.21,1.21,0,0,1,1.2,1.23,1.33,1.33,0,0,1-.16.58l-1.72,3.42h13.48L192-165.77H177.77a1.21,1.21,0,0,1-1.19-1.22,1.25,1.25,0,0,1,.15-.58l2.61-5.23a1.3,1.3,0,0,1,.5-.56l13.31-8.7H180.3a1.24,1.24,0,0,1-1.23-1.23,1.38,1.38,0,0,1,.15-.57l2.69-5.44a1.24,1.24,0,0,1,1.2-.66" transform="translate(-0.44 211.97)"/><path class="cls-6" d="M183-188.74h34.24l-24,16.11h6.63c4.44,0,6.32,3.17,4.36,7.12l-9.47,19c-1.89,3.72-7,7-11.12,7H166.5c-5,0-6.36-3.34-4.73-6.62l2.21-4.38h5.63l-2.62,5.2h16.18L194-167H177.76l2.65-5.28,16.76-11H180.29Z" transform="translate(-0.44 211.97)"/><path class="cls-7" d="M245.92,10.09h.47c4,.08,7.49,1.74,11.4,3.54a17.17,17.17,0,0,0,6,1.14c5.82.36,10.49,1.35,12.64,3.25-.7,1.28-1.36,2.55-2.06,3.83a10.62,10.62,0,0,0-.88,3.92,34.78,34.78,0,0,1-5.89,15.33,26.24,26.24,0,0,1-4.18,5c4.91-9.61,6.24-14.75,2.93-17.24-1.74-1.31-4.7-2.1-9-1.63a21.12,21.12,0,0,0-11.5,4.44V16.62a38.54,38.54,0,0,1,5.61,3.07,6.63,6.63,0,0,0,2.6-.92c1.69-1.28,1.46-2.24-1.3-3.17a29.64,29.64,0,0,0-6.91-1.3Zm0,41.2a10.54,10.54,0,0,0,7.72,3.31c2.8-.15,5.48-2.14,8.45-4.81C260,55.36,255,61,245.92,66.83ZM132.35,16.62c45.16,2.33,79.1.87,103.08-4.82a48.44,48.44,0,0,1,10.49-1.71V14.3a76.46,76.46,0,0,0-9.26-.12,30.67,30.67,0,0,1,9.26,2.44V31.69a14.31,14.31,0,0,0-3.1,3.6,10.77,10.77,0,0,0-.64,10.34,17.07,17.07,0,0,0,3.74,5.66V66.83l-.26.17c-3.39-8.56-7.46-13.9-12.87-15.22-5.95-1.45-13.26,1.91-19.42,10-4.62,6.07-6,9.61-13.27,10.94a33,33,0,0,1-6.3.61,15.72,15.72,0,0,0,6.65-6.5l11.09-22.94c2.09-4.35.41-7.32-3.75-7.2l-3.83.12,15.85-11a3.1,3.1,0,0,0,.38-4.41c-1-1.05-3-1.51-5.69-1.46-47.65.73-66.27-1.19-82.15-3.34" transform="translate(-0.44 211.97)"/><path class="cls-7" d="M80.2,15.49V13.78a.4.4,0,0,0,.38-.18,1,1,0,0,0,.11-.61V5.91a1,1,0,0,0-.11-.62c-.06-.11-.2-.14-.38-.14V3.41a1.47,1.47,0,0,1,.32-.29,2,2,0,0,1,1.16-.33,1.66,1.66,0,0,1,1.39.56A2.46,2.46,0,0,1,83.53,5v9a2.42,2.42,0,0,1-.46,1.6,1.62,1.62,0,0,1-1.39.55,1.92,1.92,0,0,1-1.21-.38,1.84,1.84,0,0,1-.27-.23m8.77.38a4.24,4.24,0,0,1-.81,2.21,2.47,2.47,0,0,1-1.8.57H84v-2h1.18a.73.73,0,0,0,.41-.09.35.35,0,0,0,.12-.32,1.13,1.13,0,0,0,0-.25,4.2,4.2,0,0,0-.09-.68L83.71,3h2.91l.48,6.42c0,.29,0,.69.07,1.21s.06,1.17.1,1.93h0c.07-.47.1-.95.17-1.48s.08-1.17.16-2L88.27,3h2.65ZM80.2,3.41V5.15a.46.46,0,0,0-.4.18,1,1,0,0,0-.12.58V13a1,1,0,0,0,.12.58.49.49,0,0,0,.4.21v1.71a2.57,2.57,0,0,1-.52-.81h0v1.1H76.86V-.16h2.82V4.11h.06a2,2,0,0,1,.46-.7M68.41,15.49V13.78a.41.41,0,0,0,.38-.21,1,1,0,0,0,.14-.58V5.91a1,1,0,0,0-.14-.58.4.4,0,0,0-.38-.18V3.41a2.39,2.39,0,0,1,.47.7h.05V-.16h2.79V15.78H69v-1.1h0a3,3,0,0,1-.52.81m0-12.08V5.15c-.17,0-.32,0-.38.14a1.11,1.11,0,0,0-.11.62V13a1.13,1.13,0,0,0,.11.61.41.41,0,0,0,.38.18v1.71a1.18,1.18,0,0,1-.27.23,2,2,0,0,1-1.24.38,1.53,1.53,0,0,1-1.33-.55A2.27,2.27,0,0,1,65.1,14V5a2.39,2.39,0,0,1,.47-1.65,1.61,1.61,0,0,1,1.33-.54,1.89,1.89,0,0,1,1.16.33,1,1,0,0,1,.35.29M60.94,16.1V14a.46.46,0,0,0,.39-.17,1.18,1.18,0,0,0,.11-.62V10.81h2.82v2.38a2.68,2.68,0,0,1-.87,2.13,3.55,3.55,0,0,1-2.45.78m0-6.3V7.9h.5V5.5a1.16,1.16,0,0,0-.11-.61.47.47,0,0,0-.39-.18v-2a3.91,3.91,0,0,1,2.45.75,2.52,2.52,0,0,1,.87,2V9.8Zm0-7.09v2a.51.51,0,0,0-.4.18,1.57,1.57,0,0,0-.11.61V7.9h.51V9.8h-.51v3.39a1.59,1.59,0,0,0,.11.62.5.5,0,0,0,.4.17V16.1a3.34,3.34,0,0,1-2.54-.84,3.92,3.92,0,0,1-.76-2.79V6.34a4,4,0,0,1,.76-2.81,3.35,3.35,0,0,1,2.52-.82ZM45.73,16.1V14a.41.41,0,0,0,.38-.17,1,1,0,0,0,.15-.62V10.81H49v2.38a2.62,2.62,0,0,1-.87,2.13,3.52,3.52,0,0,1-2.44.78m0-6.3V7.9h.53V5.5a1,1,0,0,0-.15-.61.42.42,0,0,0-.38-.18v-2a3.78,3.78,0,0,1,2.44.75,2.46,2.46,0,0,1,.87,2V9.8Zm4.21,6V3H52.7V4.11h.07a2.32,2.32,0,0,1,.83-1,2,2,0,0,1,1.16-.33,1.6,1.6,0,0,1,1.37.56A2.35,2.35,0,0,1,56.59,5v4.9H53.74v-4a1.44,1.44,0,0,0-.08-.62.49.49,0,0,0-.41-.14.45.45,0,0,0-.38.18,1.12,1.12,0,0,0-.1.58v9.87ZM45.73,2.71v2a.43.43,0,0,0-.38.18,1.14,1.14,0,0,0-.12.61V7.9h.5V9.8h-.5v3.39a1.16,1.16,0,0,0,.12.62.42.42,0,0,0,.38.17V16.1a3.41,3.41,0,0,1-2.56-.84,4.13,4.13,0,0,1-.74-2.79V6.34a4,4,0,0,1,.74-2.81,3.42,3.42,0,0,1,2.54-.82ZM26.86,16.1V14a.52.52,0,0,0,.41-.17,1.59,1.59,0,0,0,.11-.62V5.5a1.16,1.16,0,0,0-.14-.61.43.43,0,0,0-.38-.18v-2a3.45,3.45,0,0,1,2.52.85,3.93,3.93,0,0,1,.79,2.78v6.13a4,4,0,0,1-.79,2.79,3.32,3.32,0,0,1-2.52.84m5.28-.32L30.39,3h2.85l.56,6.6c0,.43,0,.87.05,1.39s0,1,0,1.6H34c0-1,.13-2.12.25-3.14a1.09,1.09,0,0,1,0-.17L34.94,3h3l.55,6.6c0,.08,0,.43,0,1.07s.07,1.3.09,1.92h.12c0-1,.12-1.92.2-2.91a2.64,2.64,0,0,0,0-.4L39.52,3h2.7L40.33,15.78H37.08l-.52-5.84c0-.2,0-.55-.06-1.1S36.44,7.71,36.44,7h-.11c0,1-.13,1.87-.21,2.74v0l-.75,6ZM19.65,6.47V2.77A1.12,1.12,0,0,0,19.48,2a1.09,1.09,0,0,0-.34-.14V-.16A4.58,4.58,0,0,1,22,.54a2.61,2.61,0,0,1,.87,2.17V6.14A3.44,3.44,0,0,1,22,8.78a4.42,4.42,0,0,1-2.81.79V7.34a.71.71,0,0,0,.34-.19.93.93,0,0,0,.17-.68m7.21-3.76v2h0a.37.37,0,0,0-.35.18,1.14,1.14,0,0,0-.12.61v7.69a1.16,1.16,0,0,0,.12.62.42.42,0,0,0,.38.17V16.1h0a3.29,3.29,0,0,1-2.52-.84,4,4,0,0,1-.79-2.79V6.34a3.93,3.93,0,0,1,.79-2.78,3.3,3.3,0,0,1,2.52-.85ZM19.14,1.9a2.56,2.56,0,0,0-.42,0h-.11V7.36h.2l.33,0V9.57h-.53v6.21H15.42V-.16h3.72Z" transform="translate(-0.44 211.97)"/></g><g class="cls-4"><path class="cls-7" d="M146.67,71.94V64.42h7.7v1.31h-6v1.64h3.46v1.29h-3.46v1.86h6v1.42Zm-119.08,0V70.52a3.8,3.8,0,0,0,2-.55,2.22,2.22,0,0,0,.76-1.86,2.35,2.35,0,0,0-.62-1.75,2.7,2.7,0,0,0-1.85-.58h-.32V64.42h.32a4.85,4.85,0,0,1,3.16,1,3.49,3.49,0,0,1,1.11,2.73,4,4,0,0,1-.44,1.9,3.23,3.23,0,0,1-1.23,1.33,3.36,3.36,0,0,1-1.21.43,8.73,8.73,0,0,1-1.71.15m99.22,0V64.42H128l5.3,4.44c.16.15.34.29.48.4s.27.27.38.42c0-.44-.05-.73-.05-.91a2,2,0,0,1,0-.4v-4h1.57v7.52h-1.2l-5.51-4.64c-.11-.12-.24-.21-.36-.33l-.25-.28a4.29,4.29,0,0,0,.05.65v4.6Zm-12.93-7.52h1.74v7.52h-1.74Zm-12.83,1.36H95.59v4.74h5.46V68.86H98.21V67.57h4.55v2.6a1.83,1.83,0,0,1-.4,1.39,2,2,0,0,1-1.46.38H95.7a2.12,2.12,0,0,1-1.48-.38,2,2,0,0,1-.38-1.39v-4a2.14,2.14,0,0,1,.38-1.42,2.29,2.29,0,0,1,1.48-.38h5.2a2.29,2.29,0,0,1,1.46.38,1.84,1.84,0,0,1,.4,1.33v.17l-1.71.33ZM74.13,71.94V64.42h1.19l5.29,4.44a5.29,5.29,0,0,0,.47.4c.13.15.26.27.37.42,0-.44,0-.73-.06-.91V64.42H83v7.52H81.77L76.25,67.3a1.79,1.79,0,0,1-.34-.33,1.33,1.33,0,0,1-.3-.28,5.57,5.57,0,0,1,.07.65c0,.22,0,.39,0,.54v4.06Zm-18.32,0V64.42h7.7v1.31h-6v1.64H61v1.29H57.55v1.86h6v1.42ZM27.59,64.42v1.36h-2.8v4.74h2.8v1.42H23.05V64.42ZM5.75,71.94a2.25,2.25,0,0,1-1.37-.32A1.5,1.5,0,0,1,4,70.46v-.62l1.54-.31V70.6H9.64a.93.93,0,0,0,.58-.14.78.78,0,0,0,.15-.55v-.52c0-.29-.06-.48-.18-.55s-.28-.15-.55-.15H7.08V67.47H9.34a.88.88,0,0,0,.58-.15.74.74,0,0,0,.16-.55V66.4a.83.83,0,0,0-.16-.56.92.92,0,0,0-.58-.11H5.63v.92l-1.48-.29V65.9a1.57,1.57,0,0,1,.35-1.17,2.25,2.25,0,0,1,1.36-.31H9.92a2.28,2.28,0,0,1,1.38.31,1.57,1.57,0,0,1,.34,1.17v.7a1.32,1.32,0,0,1-.32,1,1.84,1.84,0,0,1-1.13.45,2.63,2.63,0,0,1,1.34.44,1.51,1.51,0,0,1,.4,1.08v.81a1.51,1.51,0,0,1-.4,1.25,2.17,2.17,0,0,1-1.4.35Z" transform="translate(-0.44 211.97)"/><path class="cls-7" d="M147.43,60.53V56.18h7.2L169,26.87h-8.35l-13.18,27V36.37l6.76-13.79h19.46l1.25.08c.26.08.49.12.67.17l.46.09a2.26,2.26,0,0,1,.54.18c.39.17.7.66,1,1.44s.11,1.93-.64,3.43l-12.78,26.1a17.14,17.14,0,0,1-1.68,2.79,11.13,11.13,0,0,1-2.27,2.1,10.15,10.15,0,0,1-2.64,1.25,13.17,13.17,0,0,1-2.94.32Zm0-28.95a10.66,10.66,0,0,0,1-6.13,3.88,3.88,0,0,0-1-1.92Zm0-8v8c-.12.26-.24.49-.36.76A18.8,18.8,0,0,1,143,37.85c-.32.26-.61.52-.93.76v-16h2.36a4.46,4.46,0,0,1,3,1m0,12.84-5.38,10.89V60.53h5.38V56.18h-1.17l1.17-2.36Zm-5.38-13.79v16A16.15,16.15,0,0,1,140.13,40c-.67.44-1.39.85-2.11,1.23V31.86l2.41-5H138V22.58Zm0,24.68V60.53h-4v-5Zm-4,1.85,1.68-3.51L138,43.1Zm0-22.27h-4.83V22.58H138Zm0,5v9.33c-.32.15-.67.28-1,.43l1,1.48v6L133.19,59V39.44h1.1Zm0,23.67-2.45,5H138Zm-4.83-32.95v4.26h-1.1l-6.16,12.6h7.26V59l-.75,1.57H124l8.25-16.84H123.9l-8.24,16.84h-1.89V46.85l11.9-24.27ZM113.77,40.49l6.68-13.65-2.24-4.24h-4.44Zm0-17.89V40.49l-9.81,20H95.47l8.28-16.9H95.42l-8.29,16.9L97.47,39.44h8.46l6.18-12.63h-8.44L87.13,60.53h-2V47.23l10-20.39,6.64-4.24Zm0,24.25-6.71,13.68h6.71Zm-28.64-7a29,29,0,0,0,2.68-2.65,19,19,0,0,0,2.46-3.83c1.43-2.9,1.75-5.43,1-7.61s-2.75-3.2-5.46-3.2h-.64Zm0-17.29V39.83l-.83.7c-2.76,2-5.35,3.1-7.76,3.1H67.28L59,60.53,69.34,39.44H77.7l6.19-12.63H75.53L59,60.53h-.78V44.71L69.08,22.54Zm0,24.69-6.5,13.3h6.5ZM58.22,26.76h5.66l2.06-4.18H58.22Zm-24.84,14L34,39.44h-.65Zm0-13.92h2.54L33.8,31.18h4.3l1.76-3.64c.67-1.39.85-2.44.5-3.07a3,3,0,0,0-1-1.37l-1.19-.38-1.31-.14H33.38Zm24.84-4.23v4.18h-7L45,39.44h8.49l-2,4.19H43.06L36.91,56.18H49.48l-2.09,4.23h-14V45.84L44.8,22.58Zm0,22.13L50.46,60.53h7.76ZM1.16,54.84a4.48,4.48,0,0,0-.53,3.6,3.6,3.6,0,0,0,1.49,1.65l1,.28a5,5,0,0,0,1.49.16h13.2a10,10,0,0,0,2.85-.44,5.45,5.45,0,0,0,2.47-1.3,12,12,0,0,0,2.07-1.93,12.35,12.35,0,0,0,1.44-2.35l6.76-13.78V39.44H21.25l-2.06,4.19h4.47l-6.18,12.6H9L23.4,26.81h10V22.58H23a9.53,9.53,0,0,0-5.05,1.59,10.44,10.44,0,0,0-3.8,4.19Zm32.22-9V60.41H26.25Z" transform="translate(-0.44 211.97)"/></g><g class="cls-2"><path class="cls-5" d="M183.11,21.85h34.12a1.22,1.22,0,0,1,1.21,1.23,1.15,1.15,0,0,1-.51,1L197.22,38h2.67a8,8,0,0,1,3.49.73,5.15,5.15,0,0,1,2.12,1.89,5,5,0,0,1,.72,2.74,7.74,7.74,0,0,1-.9,3.5l-9.46,19s0,.07-.06.12a11.23,11.23,0,0,1-1.05,1.63,14,14,0,0,1-1.39,1.57c-2.61,2.52-6.44,4.35-9.69,4.35H166.5a8.51,8.51,0,0,1-3.8-.78,4.88,4.88,0,0,1-2.79-4.48,7.23,7.23,0,0,1,.78-3.13l2.18-4.38A1.24,1.24,0,0,1,164,60h5.63a1.21,1.21,0,0,1,1.2,1.23,1.33,1.33,0,0,1-.16.58l-1.72,3.42h13.48L192,46H177.77a1.21,1.21,0,0,1-1.19-1.22,1.25,1.25,0,0,1,.15-.58L179.34,39a1.3,1.3,0,0,1,.5-.56l13.31-8.7H180.3a1.24,1.24,0,0,1-1.23-1.23,1.38,1.38,0,0,1,.15-.57l2.69-5.44a1.24,1.24,0,0,1,1.2-.66" transform="translate(-0.44 211.97)"/><path class="cls-6" d="M183,23.07h34.24l-24,16.11h6.63c4.44,0,6.32,3.17,4.36,7.12l-9.47,19c-1.89,3.72-7,7-11.12,7H166.5c-5,0-6.36-3.34-4.73-6.62L164,61.26h5.63L167,66.45h16.18L194,44.81H177.76l2.65-5.27,16.76-11H180.29Z" transform="translate(-0.44 211.97)"/></g></svg>